M48
;DRILL file {Pcbnew (2013-07-07 BZR 4022)-stable} date 1/23/2017 8:00:48 PM
;FORMAT={-:-/ absolute / inch / decimal}
FMAT,2
INCH,TZ
T1C0.025
T2C0.026
T3C0.032
T4C0.035
T5C0.040
T6C0.060
%
G90
G05
M72
T1
X5.19Y-4.8
X5.2575Y-3.07
X5.265Y-3.685
X5.27Y-4.15
X5.345Y-3.03
X5.425Y-3.1
X5.425Y-4.04
X5.435Y-4.68
X5.505Y-3.
X5.63Y-4.345
X5.89Y-4.215
X5.97Y-4.345
X6.025Y-3.505
X6.07Y-4.215
X6.1325Y-4.2225
X6.225Y-4.23
X6.2725Y-4.2325
X6.3675Y-4.2975
X6.4125Y-3.7825
X6.4325Y-3.595
X6.475Y-4.205
X6.475Y-4.4875
X6.8575Y-4.51
X6.895Y-4.2475
T2
X6.6343Y-3.1645
T3
X4.6975Y-3.25
X4.6975Y-3.375
X4.6975Y-3.5
X4.6975Y-3.625
X4.6975Y-3.75
X4.75Y-4.3
X4.75Y-4.6
X4.95Y-4.3
X4.95Y-4.6
X4.9975Y-3.25
X4.9975Y-3.375
X4.9975Y-3.5
X4.9975Y-3.625
X4.9975Y-3.75
X5.15Y-3.2
X5.15Y-3.5
X5.15Y-3.65
X5.15Y-3.95
X5.4Y-4.35
X5.5Y-4.35
X5.6Y-4.1
X5.7Y-4.1
X5.8025Y-4.2975
X5.8025Y-4.3975
X5.9225Y-3.3975
X5.9225Y-3.8475
X6.0775Y-4.595
X6.1775Y-4.595
X6.2225Y-3.3975
X6.2225Y-3.8475
X6.43Y-3.6975
X6.435Y-4.5975
X6.535Y-4.5975
X6.68Y-4.1975
X6.73Y-3.6975
X6.73Y-4.3625
X6.73Y-4.6625
X6.78Y-4.1975
X6.8075Y-3.3025
X6.8075Y-3.6025
X6.83Y-4.3625
X6.83Y-4.6625
T4
X5.55Y-3.4
X5.55Y-3.55
X5.55Y-3.7
X5.55Y-3.85
X5.65Y-3.4
X5.65Y-3.55
X5.65Y-3.7
X5.65Y-3.85
T5
X5.265Y-2.9
X5.365Y-2.9
X5.465Y-2.9
X5.565Y-2.9
X5.625Y-4.8
X5.665Y-2.9
X5.725Y-4.8
X5.765Y-2.9
X5.825Y-4.8
X5.865Y-2.9
X5.925Y-4.8
X5.9257Y-3.1645
X5.9257Y-4.0305
X5.965Y-2.9
X6.0045Y-3.1645
X6.0045Y-4.0305
X6.025Y-4.8
X6.0832Y-3.1645
X6.0832Y-4.0305
X6.125Y-2.9
X6.125Y-4.8
X6.1619Y-3.1645
X6.1619Y-4.0305
X6.225Y-2.9
X6.2407Y-3.1645
X6.2407Y-4.0305
X6.3193Y-3.1645
X6.3193Y-4.0305
X6.325Y-2.9
X6.325Y-4.8
X6.3981Y-3.1645
X6.3981Y-4.0305
X6.425Y-2.9
X6.425Y-4.8
X6.4768Y-3.1645
X6.4768Y-4.0305
X6.525Y-2.9
X6.525Y-4.8
X6.5555Y-3.1645
X6.5555Y-4.0305
X6.625Y-2.9
X6.625Y-4.8
X6.6343Y-4.0305
X6.635Y-3.165
X6.725Y-2.9
X6.725Y-4.8
X6.825Y-2.9
X6.825Y-4.8
T6
X4.65Y-2.925
X4.65Y-4.775
X4.75Y-2.925
X4.75Y-4.775
X4.85Y-2.925
X4.85Y-4.775
X4.95Y-2.925
X4.95Y-4.775
T0
M30
