G04 (created by PCBNEW (2013-07-07 BZR 4022)-stable) date 12/28/2014 6:13:33 PM*
%MOIN*%
G04 Gerber Fmt 3.4, Leading zero omitted, Abs format*
%FSLAX34Y34*%
G01*
G70*
G90*
G04 APERTURE LIST*
%ADD10C,0.00590551*%
%ADD11C,0.046*%
%ADD12R,0.0394X0.0236*%
%ADD13R,0.0905X0.0432*%
%ADD14R,0.0905X0.0433*%
%ADD15C,0.055*%
%ADD16R,0.0394X0.0098*%
%ADD17R,0.0098X0.0394*%
%ADD18C,0.1*%
%ADD19O,0.06X0.1*%
%ADD20R,0.045X0.025*%
%ADD21R,0.0315X0.0394*%
%ADD22R,0.08X0.08*%
%ADD23C,0.08*%
G04 APERTURE END LIST*
G54D10*
G54D11*
X65555Y-31645D03*
X64768Y-31645D03*
X63981Y-31645D03*
X63193Y-31645D03*
X62407Y-31645D03*
X61619Y-31645D03*
X60832Y-31645D03*
X60045Y-31645D03*
X59257Y-31645D03*
X59257Y-40305D03*
X60045Y-40305D03*
X60832Y-40305D03*
X61619Y-40305D03*
X62407Y-40305D03*
X63193Y-40305D03*
X63981Y-40305D03*
X64768Y-40305D03*
X65555Y-40305D03*
X66343Y-40305D03*
G54D12*
X64941Y-33775D03*
X64109Y-33400D03*
X64941Y-33025D03*
G54D13*
X48767Y-41222D03*
X46483Y-41222D03*
X46483Y-39728D03*
G54D14*
X48767Y-39727D03*
G54D15*
X50550Y-43225D03*
X50550Y-46225D03*
X50550Y-30225D03*
X50550Y-33225D03*
X46550Y-29475D03*
X49550Y-29475D03*
X46550Y-34725D03*
X49550Y-34725D03*
X50550Y-35475D03*
X50550Y-38475D03*
X62225Y-33975D03*
X59225Y-33975D03*
X68075Y-36025D03*
X68075Y-33025D03*
X62225Y-38475D03*
X59225Y-38475D03*
X67300Y-36975D03*
X64300Y-36975D03*
X51800Y-43225D03*
X51800Y-46225D03*
X49300Y-43225D03*
X49300Y-46225D03*
X48050Y-43225D03*
X48050Y-46225D03*
X46800Y-43225D03*
X46800Y-46225D03*
X67300Y-43625D03*
X67300Y-46625D03*
X68300Y-43625D03*
X68300Y-46625D03*
G54D16*
X64204Y-43770D03*
X64204Y-43377D03*
X64204Y-43573D03*
X64204Y-43967D03*
X64204Y-43180D03*
X64204Y-42983D03*
G54D17*
X64558Y-42619D03*
X64755Y-42619D03*
X64952Y-42619D03*
X65345Y-42619D03*
X65148Y-42619D03*
X65542Y-42619D03*
G54D16*
X65896Y-42983D03*
X65896Y-43180D03*
X65896Y-43967D03*
X65896Y-43573D03*
X65896Y-43377D03*
X65896Y-43770D03*
G54D17*
X65542Y-44331D03*
X65148Y-44331D03*
X65345Y-44331D03*
X64952Y-44331D03*
X64755Y-44331D03*
X64558Y-44331D03*
G54D18*
X55050Y-38475D03*
X56550Y-38475D03*
X55050Y-36975D03*
X56550Y-36975D03*
X55050Y-35475D03*
X56550Y-35475D03*
X55050Y-33975D03*
X56550Y-33975D03*
G54D15*
X64350Y-45975D03*
X65350Y-45975D03*
X66800Y-41975D03*
X67800Y-41975D03*
X58025Y-43975D03*
X58025Y-42975D03*
X60775Y-45950D03*
X61775Y-45950D03*
G54D19*
X68300Y-47975D03*
X67300Y-47975D03*
X66300Y-47975D03*
X63300Y-47975D03*
X64300Y-47975D03*
X65300Y-47975D03*
X61300Y-47975D03*
X60300Y-47975D03*
X59300Y-47975D03*
X57300Y-47975D03*
X56300Y-47975D03*
X68300Y-28975D03*
X67300Y-28975D03*
X66300Y-28975D03*
X65300Y-28975D03*
X64300Y-28975D03*
X63300Y-28975D03*
X62300Y-28975D03*
X61300Y-28975D03*
X59700Y-28975D03*
X58700Y-28975D03*
X57700Y-28975D03*
X56700Y-28975D03*
X55700Y-28975D03*
X54700Y-28975D03*
X53700Y-28975D03*
X52700Y-28975D03*
X58300Y-47975D03*
G54D10*
G36*
X61189Y-43583D02*
X60598Y-43583D01*
X60598Y-43366D01*
X61189Y-43366D01*
X61189Y-43583D01*
X61189Y-43583D01*
G37*
G36*
X63001Y-43583D02*
X62410Y-43583D01*
X62410Y-43366D01*
X63001Y-43366D01*
X63001Y-43583D01*
X63001Y-43583D01*
G37*
G36*
X61121Y-43691D02*
X61121Y-44282D01*
X60904Y-44282D01*
X60904Y-43691D01*
X61121Y-43691D01*
X61121Y-43691D01*
G37*
G36*
X61436Y-43691D02*
X61436Y-44282D01*
X61219Y-44282D01*
X61219Y-43691D01*
X61436Y-43691D01*
X61436Y-43691D01*
G37*
G36*
X61751Y-43691D02*
X61751Y-44282D01*
X61534Y-44282D01*
X61534Y-43691D01*
X61751Y-43691D01*
X61751Y-43691D01*
G37*
G36*
X62065Y-43691D02*
X62065Y-44282D01*
X61848Y-44282D01*
X61848Y-43691D01*
X62065Y-43691D01*
X62065Y-43691D01*
G37*
G36*
X62380Y-43691D02*
X62380Y-44282D01*
X62163Y-44282D01*
X62163Y-43691D01*
X62380Y-43691D01*
X62380Y-43691D01*
G37*
G36*
X62695Y-43691D02*
X62695Y-44282D01*
X62478Y-44282D01*
X62478Y-43691D01*
X62695Y-43691D01*
X62695Y-43691D01*
G37*
G36*
X62695Y-42667D02*
X62695Y-43258D01*
X62478Y-43258D01*
X62478Y-42667D01*
X62695Y-42667D01*
X62695Y-42667D01*
G37*
G36*
X62380Y-42667D02*
X62380Y-43258D01*
X62163Y-43258D01*
X62163Y-42667D01*
X62380Y-42667D01*
X62380Y-42667D01*
G37*
G36*
X62065Y-42667D02*
X62065Y-43258D01*
X61848Y-43258D01*
X61848Y-42667D01*
X62065Y-42667D01*
X62065Y-42667D01*
G37*
G36*
X61751Y-42667D02*
X61751Y-43258D01*
X61534Y-43258D01*
X61534Y-42667D01*
X61751Y-42667D01*
X61751Y-42667D01*
G37*
G36*
X61436Y-42667D02*
X61436Y-43258D01*
X61219Y-43258D01*
X61219Y-42667D01*
X61436Y-42667D01*
X61436Y-42667D01*
G37*
G36*
X61121Y-42667D02*
X61121Y-43258D01*
X60904Y-43258D01*
X60904Y-42667D01*
X61121Y-42667D01*
X61121Y-42667D01*
G37*
G54D20*
X49300Y-47425D03*
X49300Y-48025D03*
X48050Y-47425D03*
X48050Y-48025D03*
X46800Y-47425D03*
X46800Y-48025D03*
X51800Y-47425D03*
X51800Y-48025D03*
X50550Y-47425D03*
X50550Y-48025D03*
G54D21*
X65400Y-36008D03*
X65025Y-35142D03*
X65775Y-35142D03*
G54D22*
X44550Y-37725D03*
G54D23*
X44550Y-36725D03*
X44550Y-35725D03*
X44550Y-34725D03*
G54D22*
X44550Y-32475D03*
G54D23*
X44550Y-31475D03*
X44550Y-30475D03*
X44550Y-29475D03*
M02*
