G04 (created by PCBNEW (2013-07-07 BZR 4022)-stable) date 1/23/2017 8:00:41 PM*
%MOIN*%
G04 Gerber Fmt 3.4, Leading zero omitted, Abs format*
%FSLAX34Y34*%
G01*
G70*
G90*
G04 APERTURE LIST*
%ADD10C,0.00590551*%
%ADD11C,0.055*%
%ADD12R,0.08X0.08*%
%ADD13C,0.08*%
%ADD14O,0.06X0.1*%
%ADD15C,0.06*%
%ADD16C,0.035*%
%ADD17C,0.008*%
%ADD18C,0.01*%
%ADD19C,0.02*%
G04 APERTURE END LIST*
G54D10*
G54D11*
X56000Y-41000D03*
X57000Y-41000D03*
X54000Y-43500D03*
X55000Y-43500D03*
G54D12*
X49500Y-29250D03*
G54D13*
X48500Y-29250D03*
X47500Y-29250D03*
X46500Y-29250D03*
G54D12*
X49500Y-47750D03*
G54D13*
X48500Y-47750D03*
X47500Y-47750D03*
X46500Y-47750D03*
G54D11*
X49975Y-36250D03*
X46975Y-36250D03*
X51500Y-36500D03*
X51500Y-39500D03*
X51500Y-32000D03*
X51500Y-35000D03*
X47500Y-46000D03*
X47500Y-43000D03*
X49500Y-43000D03*
X49500Y-46000D03*
X62225Y-33975D03*
X59225Y-33975D03*
X68075Y-36025D03*
X68075Y-33025D03*
X62225Y-38475D03*
X59225Y-38475D03*
X67300Y-36975D03*
X64300Y-36975D03*
X49975Y-37500D03*
X46975Y-37500D03*
X49975Y-35000D03*
X46975Y-35000D03*
X49975Y-33750D03*
X46975Y-33750D03*
X49975Y-32500D03*
X46975Y-32500D03*
X67300Y-43625D03*
X67300Y-46625D03*
X68300Y-43625D03*
X68300Y-46625D03*
X64350Y-45975D03*
X65350Y-45975D03*
X66800Y-41975D03*
X67800Y-41975D03*
X58025Y-43975D03*
X58025Y-42975D03*
X60775Y-45950D03*
X61775Y-45950D03*
G54D14*
X68250Y-48000D03*
X67250Y-48000D03*
X66250Y-48000D03*
X63250Y-48000D03*
X64250Y-48000D03*
X65250Y-48000D03*
X61250Y-48000D03*
X60250Y-48000D03*
X59250Y-48000D03*
X57250Y-48000D03*
X56250Y-48000D03*
X68250Y-29000D03*
X67250Y-29000D03*
X66250Y-29000D03*
X65250Y-29000D03*
X64250Y-29000D03*
X63250Y-29000D03*
X62250Y-29000D03*
X61250Y-29000D03*
X59650Y-29000D03*
X58650Y-29000D03*
X57650Y-29000D03*
X56650Y-29000D03*
X55650Y-29000D03*
X54650Y-29000D03*
X53650Y-29000D03*
X52650Y-29000D03*
X58250Y-48000D03*
G54D15*
X55500Y-38500D03*
X56500Y-38500D03*
X55500Y-37000D03*
X56500Y-37000D03*
X55500Y-35500D03*
X56500Y-35500D03*
X55500Y-34000D03*
X56500Y-34000D03*
X65555Y-31645D03*
X64768Y-31645D03*
X63981Y-31645D03*
X63193Y-31645D03*
X62407Y-31645D03*
X61619Y-31645D03*
X60832Y-31645D03*
X60045Y-31645D03*
X59257Y-31645D03*
X59257Y-40305D03*
X60045Y-40305D03*
X60832Y-40305D03*
X61619Y-40305D03*
X62407Y-40305D03*
X63193Y-40305D03*
X63981Y-40305D03*
X64768Y-40305D03*
X65555Y-40305D03*
X66343Y-40305D03*
X66350Y-31650D03*
G54D16*
X51900Y-48000D03*
X54250Y-40400D03*
X52700Y-41500D03*
X64750Y-44875D03*
X64325Y-35950D03*
X52650Y-36850D03*
X53450Y-30300D03*
X55050Y-30000D03*
X63675Y-42975D03*
X61325Y-42225D03*
X64125Y-37825D03*
X68950Y-42475D03*
X68575Y-45100D03*
X62725Y-42325D03*
X62250Y-42300D03*
X60250Y-35050D03*
X56300Y-43450D03*
X59700Y-43450D03*
X64750Y-42050D03*
X60700Y-42150D03*
X58900Y-42150D03*
X54350Y-46800D03*
X52575Y-30700D03*
X54250Y-31000D03*
G54D17*
X49975Y-36250D02*
X48800Y-36250D01*
X50900Y-47000D02*
X51900Y-48000D01*
X50900Y-42950D02*
X50900Y-47000D01*
X48600Y-40650D02*
X50900Y-42950D01*
X48600Y-36450D02*
X48600Y-40650D01*
X48800Y-36250D02*
X48600Y-36450D01*
X53250Y-40400D02*
X54250Y-40400D01*
X52550Y-41100D02*
X53250Y-40400D01*
X52550Y-41350D02*
X52550Y-41100D01*
X52700Y-41500D02*
X52550Y-41350D01*
G54D18*
X60775Y-45950D02*
X60000Y-45950D01*
X60000Y-45950D02*
X58025Y-43975D01*
X66750Y-43625D02*
X67300Y-43625D01*
X65225Y-45150D02*
X66750Y-43625D01*
X65025Y-45150D02*
X65225Y-45150D01*
X64750Y-44875D02*
X65025Y-45150D01*
G54D17*
X51500Y-35000D02*
X51500Y-36500D01*
G54D18*
X62225Y-38475D02*
X62225Y-33975D01*
X64768Y-31645D02*
X64768Y-31957D01*
X64325Y-32400D02*
X64325Y-35950D01*
X64768Y-31957D02*
X64325Y-32400D01*
G54D17*
X62407Y-40305D02*
X62407Y-40257D01*
X55000Y-39200D02*
X52650Y-36850D01*
X61350Y-39200D02*
X55000Y-39200D01*
X62407Y-40257D02*
X61350Y-39200D01*
G54D18*
X55300Y-37000D02*
X55500Y-37000D01*
X53450Y-35150D02*
X55300Y-37000D01*
X53450Y-30300D02*
X53450Y-35150D01*
X55537Y-36962D02*
X55550Y-36975D01*
X55050Y-30000D02*
X55050Y-33550D01*
X55050Y-33550D02*
X55500Y-34000D01*
X64375Y-29050D02*
X64300Y-28975D01*
X64375Y-31975D02*
X64375Y-29050D01*
X63825Y-32525D02*
X64375Y-31975D01*
X63825Y-37525D02*
X63825Y-32525D01*
X64125Y-37825D02*
X63825Y-37525D01*
X68950Y-44725D02*
X68950Y-42475D01*
X68575Y-45100D02*
X68950Y-44725D01*
X63575Y-29250D02*
X63300Y-28975D01*
X63575Y-41475D02*
X63575Y-29250D01*
X62725Y-42325D02*
X63575Y-41475D01*
X62300Y-28975D02*
X62300Y-29900D01*
X62250Y-41250D02*
X62250Y-42300D01*
X62800Y-40700D02*
X62250Y-41250D01*
X62800Y-30400D02*
X62800Y-40700D01*
X62300Y-29900D02*
X62800Y-30400D01*
G54D17*
X51500Y-32000D02*
X50950Y-32000D01*
X48150Y-30900D02*
X46500Y-29250D01*
X49850Y-30900D02*
X48150Y-30900D01*
X50950Y-32000D02*
X49850Y-30900D01*
G54D18*
X59225Y-33975D02*
X56525Y-33975D01*
X56525Y-33975D02*
X56500Y-34000D01*
G54D17*
X62407Y-32893D02*
X62407Y-31645D01*
X60250Y-35050D02*
X62407Y-32893D01*
X56300Y-43450D02*
X59700Y-43450D01*
G54D18*
X69400Y-45525D02*
X68300Y-46625D01*
X69400Y-42050D02*
X69400Y-45525D01*
X68450Y-41100D02*
X69400Y-42050D01*
X65700Y-41100D02*
X68450Y-41100D01*
X64750Y-42050D02*
X65700Y-41100D01*
G54D17*
X58900Y-42150D02*
X60700Y-42150D01*
X63250Y-48000D02*
X63250Y-47550D01*
X62500Y-46800D02*
X54350Y-46800D01*
X63250Y-47550D02*
X62500Y-46800D01*
X48500Y-29250D02*
X48500Y-29900D01*
X52150Y-38850D02*
X51500Y-39500D01*
X52150Y-31050D02*
X52150Y-38850D01*
X51500Y-30400D02*
X52150Y-31050D01*
X49000Y-30400D02*
X51500Y-30400D01*
X48500Y-29900D02*
X49000Y-30400D01*
X51500Y-39500D02*
X51500Y-45500D01*
X63550Y-48700D02*
X64250Y-48000D01*
X54700Y-48700D02*
X63550Y-48700D01*
X51500Y-45500D02*
X54700Y-48700D01*
G54D18*
X55500Y-38500D02*
X55075Y-38500D01*
X52575Y-30700D02*
X52500Y-30775D01*
X52500Y-30775D02*
X52500Y-35925D01*
X52500Y-35925D02*
X55050Y-38475D01*
X55075Y-38500D02*
X55050Y-38475D01*
X55250Y-35500D02*
X55500Y-35500D01*
X54250Y-34500D02*
X55250Y-35500D01*
X54250Y-31000D02*
X54250Y-34500D01*
G54D10*
G36*
X62450Y-39705D02*
X62335Y-39704D01*
X61590Y-38959D01*
X61480Y-38885D01*
X61350Y-38860D01*
X59653Y-38860D01*
X59712Y-38801D01*
X59799Y-38589D01*
X59800Y-38361D01*
X59712Y-38149D01*
X59551Y-37987D01*
X59339Y-37900D01*
X59111Y-37899D01*
X58899Y-37987D01*
X58737Y-38148D01*
X58650Y-38360D01*
X58649Y-38588D01*
X58737Y-38800D01*
X58796Y-38860D01*
X56988Y-38860D01*
X57008Y-38840D01*
X57099Y-38619D01*
X57100Y-38381D01*
X57008Y-38160D01*
X56840Y-37991D01*
X56619Y-37900D01*
X56381Y-37899D01*
X56160Y-37991D01*
X55999Y-38151D01*
X55840Y-37991D01*
X55619Y-37900D01*
X55381Y-37899D01*
X55160Y-37991D01*
X55110Y-38040D01*
X52850Y-35780D01*
X52850Y-31096D01*
X52977Y-30969D01*
X53049Y-30794D01*
X53050Y-30605D01*
X52977Y-30431D01*
X52844Y-30297D01*
X52669Y-30225D01*
X52480Y-30224D01*
X52306Y-30297D01*
X52172Y-30430D01*
X52125Y-30544D01*
X51740Y-30159D01*
X51630Y-30085D01*
X51500Y-30060D01*
X50200Y-30060D01*
X50200Y-29590D01*
X50200Y-28909D01*
X50199Y-28790D01*
X50154Y-28679D01*
X50069Y-28595D01*
X49959Y-28549D01*
X49625Y-28550D01*
X49550Y-28625D01*
X49550Y-29200D01*
X50125Y-29200D01*
X50200Y-29125D01*
X50200Y-28909D01*
X50200Y-29590D01*
X50200Y-29375D01*
X50125Y-29300D01*
X49550Y-29300D01*
X49550Y-29875D01*
X49625Y-29950D01*
X49959Y-29950D01*
X50069Y-29904D01*
X50154Y-29820D01*
X50199Y-29709D01*
X50200Y-29590D01*
X50200Y-30060D01*
X49140Y-30060D01*
X49024Y-29943D01*
X49040Y-29950D01*
X49375Y-29950D01*
X49450Y-29875D01*
X49450Y-29300D01*
X49442Y-29300D01*
X49442Y-29200D01*
X49450Y-29200D01*
X49450Y-28625D01*
X49375Y-28550D01*
X49040Y-28549D01*
X48930Y-28595D01*
X48877Y-28648D01*
X48639Y-28550D01*
X48361Y-28549D01*
X48104Y-28656D01*
X47914Y-28844D01*
X47914Y-28764D01*
X47878Y-28644D01*
X47617Y-28546D01*
X47339Y-28554D01*
X47121Y-28644D01*
X47085Y-28764D01*
X47500Y-29179D01*
X47914Y-28764D01*
X47914Y-28844D01*
X47906Y-28852D01*
X47863Y-28956D01*
X47570Y-29250D01*
X47863Y-29542D01*
X47906Y-29646D01*
X48102Y-29843D01*
X48160Y-29866D01*
X48160Y-29900D01*
X48185Y-30030D01*
X48259Y-30140D01*
X48679Y-30560D01*
X48290Y-30560D01*
X47671Y-29940D01*
X47878Y-29855D01*
X47914Y-29735D01*
X47500Y-29320D01*
X47494Y-29326D01*
X47423Y-29255D01*
X47429Y-29250D01*
X47136Y-28957D01*
X47093Y-28854D01*
X46897Y-28656D01*
X46639Y-28550D01*
X46361Y-28549D01*
X46104Y-28656D01*
X45906Y-28852D01*
X45800Y-29110D01*
X45799Y-29388D01*
X45906Y-29646D01*
X46102Y-29843D01*
X46360Y-29949D01*
X46638Y-29950D01*
X46695Y-29926D01*
X47909Y-31140D01*
X48019Y-31214D01*
X48150Y-31240D01*
X49709Y-31240D01*
X50709Y-32240D01*
X50709Y-32240D01*
X50783Y-32289D01*
X50819Y-32314D01*
X50819Y-32314D01*
X50950Y-32340D01*
X51026Y-32340D01*
X51173Y-32487D01*
X51385Y-32574D01*
X51613Y-32575D01*
X51810Y-32494D01*
X51810Y-34506D01*
X51614Y-34425D01*
X51386Y-34424D01*
X51174Y-34512D01*
X51012Y-34673D01*
X50925Y-34885D01*
X50924Y-35113D01*
X51012Y-35325D01*
X51160Y-35473D01*
X51160Y-36026D01*
X51012Y-36173D01*
X50925Y-36385D01*
X50924Y-36613D01*
X51012Y-36825D01*
X51173Y-36987D01*
X51385Y-37074D01*
X51613Y-37075D01*
X51810Y-36994D01*
X51810Y-38709D01*
X51594Y-38925D01*
X51386Y-38924D01*
X51174Y-39012D01*
X51012Y-39173D01*
X50925Y-39385D01*
X50924Y-39613D01*
X51012Y-39825D01*
X51160Y-39973D01*
X51160Y-42738D01*
X51140Y-42709D01*
X51140Y-42709D01*
X50550Y-42119D01*
X50550Y-37386D01*
X50462Y-37174D01*
X50301Y-37012D01*
X50089Y-36925D01*
X49861Y-36924D01*
X49649Y-37012D01*
X49487Y-37173D01*
X49400Y-37385D01*
X49399Y-37613D01*
X49487Y-37825D01*
X49648Y-37987D01*
X49860Y-38074D01*
X50088Y-38075D01*
X50300Y-37987D01*
X50462Y-37826D01*
X50549Y-37614D01*
X50550Y-37386D01*
X50550Y-42119D01*
X48940Y-40509D01*
X48940Y-36590D01*
X48940Y-36590D01*
X49501Y-36590D01*
X49648Y-36737D01*
X49860Y-36824D01*
X50088Y-36825D01*
X50300Y-36737D01*
X50462Y-36576D01*
X50549Y-36364D01*
X50550Y-36136D01*
X50550Y-34886D01*
X50550Y-33636D01*
X50550Y-32386D01*
X50462Y-32174D01*
X50301Y-32012D01*
X50089Y-31925D01*
X49861Y-31924D01*
X49649Y-32012D01*
X49487Y-32173D01*
X49400Y-32385D01*
X49399Y-32613D01*
X49487Y-32825D01*
X49648Y-32987D01*
X49860Y-33074D01*
X50088Y-33075D01*
X50300Y-32987D01*
X50462Y-32826D01*
X50549Y-32614D01*
X50550Y-32386D01*
X50550Y-33636D01*
X50462Y-33424D01*
X50301Y-33262D01*
X50089Y-33175D01*
X49861Y-33174D01*
X49649Y-33262D01*
X49487Y-33423D01*
X49400Y-33635D01*
X49399Y-33863D01*
X49487Y-34075D01*
X49648Y-34237D01*
X49860Y-34324D01*
X50088Y-34325D01*
X50300Y-34237D01*
X50462Y-34076D01*
X50549Y-33864D01*
X50550Y-33636D01*
X50550Y-34886D01*
X50462Y-34674D01*
X50301Y-34512D01*
X50089Y-34425D01*
X49861Y-34424D01*
X49649Y-34512D01*
X49487Y-34673D01*
X49400Y-34885D01*
X49399Y-35113D01*
X49487Y-35325D01*
X49648Y-35487D01*
X49860Y-35574D01*
X50088Y-35575D01*
X50300Y-35487D01*
X50462Y-35326D01*
X50549Y-35114D01*
X50550Y-34886D01*
X50550Y-36136D01*
X50462Y-35924D01*
X50301Y-35762D01*
X50089Y-35675D01*
X49861Y-35674D01*
X49649Y-35762D01*
X49501Y-35910D01*
X48800Y-35910D01*
X48669Y-35935D01*
X48633Y-35960D01*
X48559Y-36009D01*
X48359Y-36209D01*
X48285Y-36319D01*
X48260Y-36450D01*
X48260Y-40650D01*
X48285Y-40780D01*
X48359Y-40890D01*
X50560Y-43090D01*
X50560Y-47000D01*
X50585Y-47130D01*
X50659Y-47240D01*
X51424Y-48005D01*
X51424Y-48094D01*
X51497Y-48268D01*
X51630Y-48402D01*
X51805Y-48474D01*
X51994Y-48475D01*
X52168Y-48402D01*
X52302Y-48269D01*
X52374Y-48094D01*
X52375Y-47905D01*
X52302Y-47731D01*
X52169Y-47597D01*
X51994Y-47525D01*
X51905Y-47525D01*
X51240Y-46859D01*
X51240Y-45711D01*
X51259Y-45740D01*
X54174Y-48655D01*
X50200Y-48655D01*
X50200Y-48090D01*
X50200Y-47409D01*
X50199Y-47290D01*
X50154Y-47179D01*
X50075Y-47100D01*
X50075Y-45886D01*
X50075Y-42886D01*
X49987Y-42674D01*
X49826Y-42512D01*
X49614Y-42425D01*
X49386Y-42424D01*
X49174Y-42512D01*
X49012Y-42673D01*
X48925Y-42885D01*
X48924Y-43113D01*
X49012Y-43325D01*
X49173Y-43487D01*
X49385Y-43574D01*
X49613Y-43575D01*
X49825Y-43487D01*
X49987Y-43326D01*
X50074Y-43114D01*
X50075Y-42886D01*
X50075Y-45886D01*
X49987Y-45674D01*
X49826Y-45512D01*
X49614Y-45425D01*
X49386Y-45424D01*
X49174Y-45512D01*
X49012Y-45673D01*
X48925Y-45885D01*
X48924Y-46113D01*
X49012Y-46325D01*
X49173Y-46487D01*
X49385Y-46574D01*
X49613Y-46575D01*
X49825Y-46487D01*
X49987Y-46326D01*
X50074Y-46114D01*
X50075Y-45886D01*
X50075Y-47100D01*
X50069Y-47095D01*
X49959Y-47049D01*
X49625Y-47050D01*
X49550Y-47125D01*
X49550Y-47700D01*
X50125Y-47700D01*
X50200Y-47625D01*
X50200Y-47409D01*
X50200Y-48090D01*
X50200Y-47875D01*
X50125Y-47800D01*
X49550Y-47800D01*
X49550Y-48375D01*
X49625Y-48450D01*
X49959Y-48450D01*
X50069Y-48404D01*
X50154Y-48320D01*
X50199Y-48209D01*
X50200Y-48090D01*
X50200Y-48655D01*
X49450Y-48655D01*
X49450Y-48375D01*
X49450Y-47800D01*
X49442Y-47800D01*
X49442Y-47700D01*
X49450Y-47700D01*
X49450Y-47125D01*
X49375Y-47050D01*
X49040Y-47049D01*
X48930Y-47095D01*
X48877Y-47148D01*
X48639Y-47050D01*
X48361Y-47049D01*
X48104Y-47156D01*
X48075Y-47185D01*
X48075Y-45886D01*
X48075Y-42886D01*
X47987Y-42674D01*
X47826Y-42512D01*
X47614Y-42425D01*
X47550Y-42425D01*
X47550Y-37386D01*
X47550Y-36136D01*
X47550Y-34886D01*
X47550Y-33636D01*
X47550Y-32386D01*
X47462Y-32174D01*
X47301Y-32012D01*
X47089Y-31925D01*
X46861Y-31924D01*
X46649Y-32012D01*
X46487Y-32173D01*
X46400Y-32385D01*
X46399Y-32613D01*
X46487Y-32825D01*
X46648Y-32987D01*
X46860Y-33074D01*
X47088Y-33075D01*
X47300Y-32987D01*
X47462Y-32826D01*
X47549Y-32614D01*
X47550Y-32386D01*
X47550Y-33636D01*
X47462Y-33424D01*
X47301Y-33262D01*
X47089Y-33175D01*
X46861Y-33174D01*
X46649Y-33262D01*
X46487Y-33423D01*
X46400Y-33635D01*
X46399Y-33863D01*
X46487Y-34075D01*
X46648Y-34237D01*
X46860Y-34324D01*
X47088Y-34325D01*
X47300Y-34237D01*
X47462Y-34076D01*
X47549Y-33864D01*
X47550Y-33636D01*
X47550Y-34886D01*
X47462Y-34674D01*
X47301Y-34512D01*
X47089Y-34425D01*
X46861Y-34424D01*
X46649Y-34512D01*
X46487Y-34673D01*
X46400Y-34885D01*
X46399Y-35113D01*
X46487Y-35325D01*
X46648Y-35487D01*
X46860Y-35574D01*
X47088Y-35575D01*
X47300Y-35487D01*
X47462Y-35326D01*
X47549Y-35114D01*
X47550Y-34886D01*
X47550Y-36136D01*
X47462Y-35924D01*
X47301Y-35762D01*
X47089Y-35675D01*
X46861Y-35674D01*
X46649Y-35762D01*
X46487Y-35923D01*
X46400Y-36135D01*
X46399Y-36363D01*
X46487Y-36575D01*
X46648Y-36737D01*
X46860Y-36824D01*
X47088Y-36825D01*
X47300Y-36737D01*
X47462Y-36576D01*
X47549Y-36364D01*
X47550Y-36136D01*
X47550Y-37386D01*
X47462Y-37174D01*
X47301Y-37012D01*
X47089Y-36925D01*
X46861Y-36924D01*
X46649Y-37012D01*
X46487Y-37173D01*
X46400Y-37385D01*
X46399Y-37613D01*
X46487Y-37825D01*
X46648Y-37987D01*
X46860Y-38074D01*
X47088Y-38075D01*
X47300Y-37987D01*
X47462Y-37826D01*
X47549Y-37614D01*
X47550Y-37386D01*
X47550Y-42425D01*
X47386Y-42424D01*
X47174Y-42512D01*
X47012Y-42673D01*
X46925Y-42885D01*
X46924Y-43113D01*
X47012Y-43325D01*
X47173Y-43487D01*
X47385Y-43574D01*
X47613Y-43575D01*
X47825Y-43487D01*
X47987Y-43326D01*
X48074Y-43114D01*
X48075Y-42886D01*
X48075Y-45886D01*
X47987Y-45674D01*
X47826Y-45512D01*
X47614Y-45425D01*
X47386Y-45424D01*
X47174Y-45512D01*
X47012Y-45673D01*
X46925Y-45885D01*
X46924Y-46113D01*
X47012Y-46325D01*
X47173Y-46487D01*
X47385Y-46574D01*
X47613Y-46575D01*
X47825Y-46487D01*
X47987Y-46326D01*
X48074Y-46114D01*
X48075Y-45886D01*
X48075Y-47185D01*
X47914Y-47344D01*
X47914Y-47264D01*
X47878Y-47144D01*
X47617Y-47046D01*
X47339Y-47054D01*
X47121Y-47144D01*
X47085Y-47264D01*
X47500Y-47679D01*
X47914Y-47264D01*
X47914Y-47344D01*
X47906Y-47352D01*
X47863Y-47456D01*
X47570Y-47750D01*
X47863Y-48042D01*
X47906Y-48146D01*
X48102Y-48343D01*
X48360Y-48449D01*
X48638Y-48450D01*
X48877Y-48351D01*
X48930Y-48404D01*
X49040Y-48450D01*
X49375Y-48450D01*
X49450Y-48375D01*
X49450Y-48655D01*
X47914Y-48655D01*
X47914Y-48235D01*
X47500Y-47820D01*
X47429Y-47891D01*
X47429Y-47750D01*
X47136Y-47457D01*
X47093Y-47354D01*
X46897Y-47156D01*
X46639Y-47050D01*
X46361Y-47049D01*
X46104Y-47156D01*
X45906Y-47352D01*
X45800Y-47610D01*
X45799Y-47888D01*
X45906Y-48146D01*
X46102Y-48343D01*
X46360Y-48449D01*
X46638Y-48450D01*
X46896Y-48343D01*
X47093Y-48147D01*
X47136Y-48043D01*
X47429Y-47750D01*
X47429Y-47891D01*
X47085Y-48235D01*
X47121Y-48355D01*
X47382Y-48453D01*
X47660Y-48445D01*
X47878Y-48355D01*
X47914Y-48235D01*
X47914Y-48655D01*
X43619Y-48655D01*
X43619Y-28294D01*
X52323Y-28294D01*
X52225Y-28360D01*
X52095Y-28554D01*
X52050Y-28784D01*
X52050Y-29215D01*
X52095Y-29445D01*
X52225Y-29639D01*
X52420Y-29770D01*
X52650Y-29815D01*
X52879Y-29770D01*
X53074Y-29639D01*
X53152Y-29523D01*
X53261Y-29659D01*
X53466Y-29773D01*
X53507Y-29782D01*
X53600Y-29722D01*
X53600Y-29050D01*
X53592Y-29050D01*
X53592Y-28950D01*
X53600Y-28950D01*
X53600Y-28942D01*
X53700Y-28942D01*
X53700Y-28950D01*
X53707Y-28950D01*
X53707Y-29050D01*
X53700Y-29050D01*
X53700Y-29722D01*
X53792Y-29782D01*
X53833Y-29773D01*
X54038Y-29659D01*
X54147Y-29523D01*
X54225Y-29639D01*
X54420Y-29770D01*
X54615Y-29808D01*
X54575Y-29905D01*
X54574Y-30094D01*
X54647Y-30268D01*
X54700Y-30321D01*
X54700Y-30845D01*
X54652Y-30731D01*
X54519Y-30597D01*
X54344Y-30525D01*
X54155Y-30524D01*
X53981Y-30597D01*
X53847Y-30730D01*
X53800Y-30845D01*
X53800Y-30621D01*
X53852Y-30569D01*
X53924Y-30394D01*
X53925Y-30205D01*
X53852Y-30031D01*
X53719Y-29897D01*
X53544Y-29825D01*
X53355Y-29824D01*
X53181Y-29897D01*
X53047Y-30030D01*
X52975Y-30205D01*
X52974Y-30394D01*
X53047Y-30568D01*
X53100Y-30621D01*
X53100Y-35150D01*
X53126Y-35283D01*
X53202Y-35397D01*
X54899Y-37094D01*
X54899Y-37118D01*
X54991Y-37339D01*
X55159Y-37508D01*
X55380Y-37599D01*
X55618Y-37600D01*
X55839Y-37508D01*
X56000Y-37348D01*
X56159Y-37508D01*
X56380Y-37599D01*
X56618Y-37600D01*
X56839Y-37508D01*
X57008Y-37340D01*
X57099Y-37119D01*
X57100Y-36881D01*
X57008Y-36660D01*
X56840Y-36491D01*
X56619Y-36400D01*
X56381Y-36399D01*
X56160Y-36491D01*
X55999Y-36651D01*
X55840Y-36491D01*
X55619Y-36400D01*
X55381Y-36399D01*
X55249Y-36454D01*
X53800Y-35005D01*
X53800Y-31154D01*
X53847Y-31268D01*
X53900Y-31321D01*
X53900Y-34500D01*
X53926Y-34633D01*
X54002Y-34747D01*
X54918Y-35663D01*
X54991Y-35839D01*
X55159Y-36008D01*
X55380Y-36099D01*
X55618Y-36100D01*
X55839Y-36008D01*
X56000Y-35848D01*
X56159Y-36008D01*
X56380Y-36099D01*
X56618Y-36100D01*
X56839Y-36008D01*
X57008Y-35840D01*
X57099Y-35619D01*
X57100Y-35381D01*
X57008Y-35160D01*
X56840Y-34991D01*
X56619Y-34900D01*
X56381Y-34899D01*
X56160Y-34991D01*
X55999Y-35151D01*
X55840Y-34991D01*
X55619Y-34900D01*
X55381Y-34899D01*
X55213Y-34968D01*
X54600Y-34355D01*
X54600Y-31321D01*
X54652Y-31269D01*
X54700Y-31154D01*
X54700Y-33550D01*
X54726Y-33683D01*
X54802Y-33797D01*
X54900Y-33895D01*
X54899Y-34118D01*
X54991Y-34339D01*
X55159Y-34508D01*
X55380Y-34599D01*
X55618Y-34600D01*
X55839Y-34508D01*
X56000Y-34348D01*
X56159Y-34508D01*
X56380Y-34599D01*
X56618Y-34600D01*
X56839Y-34508D01*
X57008Y-34340D01*
X57014Y-34325D01*
X58761Y-34325D01*
X58898Y-34462D01*
X59110Y-34549D01*
X59338Y-34550D01*
X59550Y-34462D01*
X59712Y-34301D01*
X59799Y-34089D01*
X59800Y-33861D01*
X59712Y-33649D01*
X59599Y-33536D01*
X59551Y-33487D01*
X59339Y-33400D01*
X59111Y-33399D01*
X58899Y-33487D01*
X58761Y-33625D01*
X56973Y-33625D01*
X56840Y-33491D01*
X56619Y-33400D01*
X56381Y-33399D01*
X56160Y-33491D01*
X55999Y-33651D01*
X55840Y-33491D01*
X55619Y-33400D01*
X55400Y-33399D01*
X55400Y-30321D01*
X55452Y-30269D01*
X55524Y-30094D01*
X55525Y-29905D01*
X55473Y-29780D01*
X55650Y-29815D01*
X55879Y-29770D01*
X56074Y-29639D01*
X56150Y-29526D01*
X56225Y-29639D01*
X56420Y-29770D01*
X56650Y-29815D01*
X56879Y-29770D01*
X57074Y-29639D01*
X57150Y-29526D01*
X57225Y-29639D01*
X57420Y-29770D01*
X57650Y-29815D01*
X57879Y-29770D01*
X58074Y-29639D01*
X58150Y-29526D01*
X58225Y-29639D01*
X58420Y-29770D01*
X58650Y-29815D01*
X58879Y-29770D01*
X59074Y-29639D01*
X59150Y-29526D01*
X59225Y-29639D01*
X59420Y-29770D01*
X59650Y-29815D01*
X59879Y-29770D01*
X60074Y-29639D01*
X60204Y-29445D01*
X60250Y-29215D01*
X60250Y-28784D01*
X60204Y-28554D01*
X60074Y-28360D01*
X59976Y-28294D01*
X60923Y-28294D01*
X60825Y-28360D01*
X60695Y-28554D01*
X60650Y-28784D01*
X60650Y-29215D01*
X60695Y-29445D01*
X60825Y-29639D01*
X61020Y-29770D01*
X61250Y-29815D01*
X61479Y-29770D01*
X61674Y-29639D01*
X61750Y-29526D01*
X61825Y-29639D01*
X61950Y-29722D01*
X61950Y-29900D01*
X61976Y-30033D01*
X62052Y-30147D01*
X62450Y-30544D01*
X62450Y-31045D01*
X62288Y-31044D01*
X62067Y-31136D01*
X62013Y-31190D01*
X61959Y-31136D01*
X61738Y-31045D01*
X61500Y-31044D01*
X61279Y-31136D01*
X61225Y-31189D01*
X61172Y-31136D01*
X60951Y-31045D01*
X60713Y-31044D01*
X60492Y-31136D01*
X60438Y-31189D01*
X60385Y-31136D01*
X60164Y-31045D01*
X59926Y-31044D01*
X59705Y-31136D01*
X59657Y-31183D01*
X59652Y-31178D01*
X59599Y-31231D01*
X59574Y-31122D01*
X59350Y-31040D01*
X59112Y-31050D01*
X58939Y-31122D01*
X58914Y-31231D01*
X59257Y-31574D01*
X59262Y-31568D01*
X59333Y-31639D01*
X59327Y-31645D01*
X59333Y-31650D01*
X59262Y-31721D01*
X59257Y-31715D01*
X59186Y-31786D01*
X59186Y-31645D01*
X58843Y-31302D01*
X58734Y-31327D01*
X58652Y-31551D01*
X58662Y-31789D01*
X58734Y-31962D01*
X58843Y-31987D01*
X59186Y-31645D01*
X59186Y-31786D01*
X58914Y-32058D01*
X58939Y-32167D01*
X59163Y-32249D01*
X59401Y-32239D01*
X59574Y-32167D01*
X59599Y-32058D01*
X59599Y-32058D01*
X59652Y-32111D01*
X59657Y-32106D01*
X59704Y-32153D01*
X59925Y-32244D01*
X60163Y-32245D01*
X60384Y-32153D01*
X60438Y-32100D01*
X60491Y-32153D01*
X60712Y-32244D01*
X60950Y-32245D01*
X61171Y-32153D01*
X61225Y-32100D01*
X61278Y-32153D01*
X61499Y-32244D01*
X61737Y-32245D01*
X61958Y-32153D01*
X62012Y-32099D01*
X62066Y-32153D01*
X62067Y-32153D01*
X62067Y-32752D01*
X60244Y-34574D01*
X60155Y-34574D01*
X59981Y-34647D01*
X59847Y-34780D01*
X59775Y-34955D01*
X59774Y-35144D01*
X59847Y-35318D01*
X59980Y-35452D01*
X60155Y-35524D01*
X60344Y-35525D01*
X60518Y-35452D01*
X60652Y-35319D01*
X60724Y-35144D01*
X60724Y-35055D01*
X61662Y-34118D01*
X61737Y-34300D01*
X61875Y-34438D01*
X61875Y-38011D01*
X61737Y-38148D01*
X61650Y-38360D01*
X61649Y-38588D01*
X61737Y-38800D01*
X61898Y-38962D01*
X62110Y-39049D01*
X62338Y-39050D01*
X62450Y-39004D01*
X62450Y-39705D01*
X62450Y-39705D01*
G37*
G54D19*
X62450Y-39705D02*
X62335Y-39704D01*
X61590Y-38959D01*
X61480Y-38885D01*
X61350Y-38860D01*
X59653Y-38860D01*
X59712Y-38801D01*
X59799Y-38589D01*
X59800Y-38361D01*
X59712Y-38149D01*
X59551Y-37987D01*
X59339Y-37900D01*
X59111Y-37899D01*
X58899Y-37987D01*
X58737Y-38148D01*
X58650Y-38360D01*
X58649Y-38588D01*
X58737Y-38800D01*
X58796Y-38860D01*
X56988Y-38860D01*
X57008Y-38840D01*
X57099Y-38619D01*
X57100Y-38381D01*
X57008Y-38160D01*
X56840Y-37991D01*
X56619Y-37900D01*
X56381Y-37899D01*
X56160Y-37991D01*
X55999Y-38151D01*
X55840Y-37991D01*
X55619Y-37900D01*
X55381Y-37899D01*
X55160Y-37991D01*
X55110Y-38040D01*
X52850Y-35780D01*
X52850Y-31096D01*
X52977Y-30969D01*
X53049Y-30794D01*
X53050Y-30605D01*
X52977Y-30431D01*
X52844Y-30297D01*
X52669Y-30225D01*
X52480Y-30224D01*
X52306Y-30297D01*
X52172Y-30430D01*
X52125Y-30544D01*
X51740Y-30159D01*
X51630Y-30085D01*
X51500Y-30060D01*
X50200Y-30060D01*
X50200Y-29590D01*
X50200Y-28909D01*
X50199Y-28790D01*
X50154Y-28679D01*
X50069Y-28595D01*
X49959Y-28549D01*
X49625Y-28550D01*
X49550Y-28625D01*
X49550Y-29200D01*
X50125Y-29200D01*
X50200Y-29125D01*
X50200Y-28909D01*
X50200Y-29590D01*
X50200Y-29375D01*
X50125Y-29300D01*
X49550Y-29300D01*
X49550Y-29875D01*
X49625Y-29950D01*
X49959Y-29950D01*
X50069Y-29904D01*
X50154Y-29820D01*
X50199Y-29709D01*
X50200Y-29590D01*
X50200Y-30060D01*
X49140Y-30060D01*
X49024Y-29943D01*
X49040Y-29950D01*
X49375Y-29950D01*
X49450Y-29875D01*
X49450Y-29300D01*
X49442Y-29300D01*
X49442Y-29200D01*
X49450Y-29200D01*
X49450Y-28625D01*
X49375Y-28550D01*
X49040Y-28549D01*
X48930Y-28595D01*
X48877Y-28648D01*
X48639Y-28550D01*
X48361Y-28549D01*
X48104Y-28656D01*
X47914Y-28844D01*
X47914Y-28764D01*
X47878Y-28644D01*
X47617Y-28546D01*
X47339Y-28554D01*
X47121Y-28644D01*
X47085Y-28764D01*
X47500Y-29179D01*
X47914Y-28764D01*
X47914Y-28844D01*
X47906Y-28852D01*
X47863Y-28956D01*
X47570Y-29250D01*
X47863Y-29542D01*
X47906Y-29646D01*
X48102Y-29843D01*
X48160Y-29866D01*
X48160Y-29900D01*
X48185Y-30030D01*
X48259Y-30140D01*
X48679Y-30560D01*
X48290Y-30560D01*
X47671Y-29940D01*
X47878Y-29855D01*
X47914Y-29735D01*
X47500Y-29320D01*
X47494Y-29326D01*
X47423Y-29255D01*
X47429Y-29250D01*
X47136Y-28957D01*
X47093Y-28854D01*
X46897Y-28656D01*
X46639Y-28550D01*
X46361Y-28549D01*
X46104Y-28656D01*
X45906Y-28852D01*
X45800Y-29110D01*
X45799Y-29388D01*
X45906Y-29646D01*
X46102Y-29843D01*
X46360Y-29949D01*
X46638Y-29950D01*
X46695Y-29926D01*
X47909Y-31140D01*
X48019Y-31214D01*
X48150Y-31240D01*
X49709Y-31240D01*
X50709Y-32240D01*
X50709Y-32240D01*
X50783Y-32289D01*
X50819Y-32314D01*
X50819Y-32314D01*
X50950Y-32340D01*
X51026Y-32340D01*
X51173Y-32487D01*
X51385Y-32574D01*
X51613Y-32575D01*
X51810Y-32494D01*
X51810Y-34506D01*
X51614Y-34425D01*
X51386Y-34424D01*
X51174Y-34512D01*
X51012Y-34673D01*
X50925Y-34885D01*
X50924Y-35113D01*
X51012Y-35325D01*
X51160Y-35473D01*
X51160Y-36026D01*
X51012Y-36173D01*
X50925Y-36385D01*
X50924Y-36613D01*
X51012Y-36825D01*
X51173Y-36987D01*
X51385Y-37074D01*
X51613Y-37075D01*
X51810Y-36994D01*
X51810Y-38709D01*
X51594Y-38925D01*
X51386Y-38924D01*
X51174Y-39012D01*
X51012Y-39173D01*
X50925Y-39385D01*
X50924Y-39613D01*
X51012Y-39825D01*
X51160Y-39973D01*
X51160Y-42738D01*
X51140Y-42709D01*
X51140Y-42709D01*
X50550Y-42119D01*
X50550Y-37386D01*
X50462Y-37174D01*
X50301Y-37012D01*
X50089Y-36925D01*
X49861Y-36924D01*
X49649Y-37012D01*
X49487Y-37173D01*
X49400Y-37385D01*
X49399Y-37613D01*
X49487Y-37825D01*
X49648Y-37987D01*
X49860Y-38074D01*
X50088Y-38075D01*
X50300Y-37987D01*
X50462Y-37826D01*
X50549Y-37614D01*
X50550Y-37386D01*
X50550Y-42119D01*
X48940Y-40509D01*
X48940Y-36590D01*
X48940Y-36590D01*
X49501Y-36590D01*
X49648Y-36737D01*
X49860Y-36824D01*
X50088Y-36825D01*
X50300Y-36737D01*
X50462Y-36576D01*
X50549Y-36364D01*
X50550Y-36136D01*
X50550Y-34886D01*
X50550Y-33636D01*
X50550Y-32386D01*
X50462Y-32174D01*
X50301Y-32012D01*
X50089Y-31925D01*
X49861Y-31924D01*
X49649Y-32012D01*
X49487Y-32173D01*
X49400Y-32385D01*
X49399Y-32613D01*
X49487Y-32825D01*
X49648Y-32987D01*
X49860Y-33074D01*
X50088Y-33075D01*
X50300Y-32987D01*
X50462Y-32826D01*
X50549Y-32614D01*
X50550Y-32386D01*
X50550Y-33636D01*
X50462Y-33424D01*
X50301Y-33262D01*
X50089Y-33175D01*
X49861Y-33174D01*
X49649Y-33262D01*
X49487Y-33423D01*
X49400Y-33635D01*
X49399Y-33863D01*
X49487Y-34075D01*
X49648Y-34237D01*
X49860Y-34324D01*
X50088Y-34325D01*
X50300Y-34237D01*
X50462Y-34076D01*
X50549Y-33864D01*
X50550Y-33636D01*
X50550Y-34886D01*
X50462Y-34674D01*
X50301Y-34512D01*
X50089Y-34425D01*
X49861Y-34424D01*
X49649Y-34512D01*
X49487Y-34673D01*
X49400Y-34885D01*
X49399Y-35113D01*
X49487Y-35325D01*
X49648Y-35487D01*
X49860Y-35574D01*
X50088Y-35575D01*
X50300Y-35487D01*
X50462Y-35326D01*
X50549Y-35114D01*
X50550Y-34886D01*
X50550Y-36136D01*
X50462Y-35924D01*
X50301Y-35762D01*
X50089Y-35675D01*
X49861Y-35674D01*
X49649Y-35762D01*
X49501Y-35910D01*
X48800Y-35910D01*
X48669Y-35935D01*
X48633Y-35960D01*
X48559Y-36009D01*
X48359Y-36209D01*
X48285Y-36319D01*
X48260Y-36450D01*
X48260Y-40650D01*
X48285Y-40780D01*
X48359Y-40890D01*
X50560Y-43090D01*
X50560Y-47000D01*
X50585Y-47130D01*
X50659Y-47240D01*
X51424Y-48005D01*
X51424Y-48094D01*
X51497Y-48268D01*
X51630Y-48402D01*
X51805Y-48474D01*
X51994Y-48475D01*
X52168Y-48402D01*
X52302Y-48269D01*
X52374Y-48094D01*
X52375Y-47905D01*
X52302Y-47731D01*
X52169Y-47597D01*
X51994Y-47525D01*
X51905Y-47525D01*
X51240Y-46859D01*
X51240Y-45711D01*
X51259Y-45740D01*
X54174Y-48655D01*
X50200Y-48655D01*
X50200Y-48090D01*
X50200Y-47409D01*
X50199Y-47290D01*
X50154Y-47179D01*
X50075Y-47100D01*
X50075Y-45886D01*
X50075Y-42886D01*
X49987Y-42674D01*
X49826Y-42512D01*
X49614Y-42425D01*
X49386Y-42424D01*
X49174Y-42512D01*
X49012Y-42673D01*
X48925Y-42885D01*
X48924Y-43113D01*
X49012Y-43325D01*
X49173Y-43487D01*
X49385Y-43574D01*
X49613Y-43575D01*
X49825Y-43487D01*
X49987Y-43326D01*
X50074Y-43114D01*
X50075Y-42886D01*
X50075Y-45886D01*
X49987Y-45674D01*
X49826Y-45512D01*
X49614Y-45425D01*
X49386Y-45424D01*
X49174Y-45512D01*
X49012Y-45673D01*
X48925Y-45885D01*
X48924Y-46113D01*
X49012Y-46325D01*
X49173Y-46487D01*
X49385Y-46574D01*
X49613Y-46575D01*
X49825Y-46487D01*
X49987Y-46326D01*
X50074Y-46114D01*
X50075Y-45886D01*
X50075Y-47100D01*
X50069Y-47095D01*
X49959Y-47049D01*
X49625Y-47050D01*
X49550Y-47125D01*
X49550Y-47700D01*
X50125Y-47700D01*
X50200Y-47625D01*
X50200Y-47409D01*
X50200Y-48090D01*
X50200Y-47875D01*
X50125Y-47800D01*
X49550Y-47800D01*
X49550Y-48375D01*
X49625Y-48450D01*
X49959Y-48450D01*
X50069Y-48404D01*
X50154Y-48320D01*
X50199Y-48209D01*
X50200Y-48090D01*
X50200Y-48655D01*
X49450Y-48655D01*
X49450Y-48375D01*
X49450Y-47800D01*
X49442Y-47800D01*
X49442Y-47700D01*
X49450Y-47700D01*
X49450Y-47125D01*
X49375Y-47050D01*
X49040Y-47049D01*
X48930Y-47095D01*
X48877Y-47148D01*
X48639Y-47050D01*
X48361Y-47049D01*
X48104Y-47156D01*
X48075Y-47185D01*
X48075Y-45886D01*
X48075Y-42886D01*
X47987Y-42674D01*
X47826Y-42512D01*
X47614Y-42425D01*
X47550Y-42425D01*
X47550Y-37386D01*
X47550Y-36136D01*
X47550Y-34886D01*
X47550Y-33636D01*
X47550Y-32386D01*
X47462Y-32174D01*
X47301Y-32012D01*
X47089Y-31925D01*
X46861Y-31924D01*
X46649Y-32012D01*
X46487Y-32173D01*
X46400Y-32385D01*
X46399Y-32613D01*
X46487Y-32825D01*
X46648Y-32987D01*
X46860Y-33074D01*
X47088Y-33075D01*
X47300Y-32987D01*
X47462Y-32826D01*
X47549Y-32614D01*
X47550Y-32386D01*
X47550Y-33636D01*
X47462Y-33424D01*
X47301Y-33262D01*
X47089Y-33175D01*
X46861Y-33174D01*
X46649Y-33262D01*
X46487Y-33423D01*
X46400Y-33635D01*
X46399Y-33863D01*
X46487Y-34075D01*
X46648Y-34237D01*
X46860Y-34324D01*
X47088Y-34325D01*
X47300Y-34237D01*
X47462Y-34076D01*
X47549Y-33864D01*
X47550Y-33636D01*
X47550Y-34886D01*
X47462Y-34674D01*
X47301Y-34512D01*
X47089Y-34425D01*
X46861Y-34424D01*
X46649Y-34512D01*
X46487Y-34673D01*
X46400Y-34885D01*
X46399Y-35113D01*
X46487Y-35325D01*
X46648Y-35487D01*
X46860Y-35574D01*
X47088Y-35575D01*
X47300Y-35487D01*
X47462Y-35326D01*
X47549Y-35114D01*
X47550Y-34886D01*
X47550Y-36136D01*
X47462Y-35924D01*
X47301Y-35762D01*
X47089Y-35675D01*
X46861Y-35674D01*
X46649Y-35762D01*
X46487Y-35923D01*
X46400Y-36135D01*
X46399Y-36363D01*
X46487Y-36575D01*
X46648Y-36737D01*
X46860Y-36824D01*
X47088Y-36825D01*
X47300Y-36737D01*
X47462Y-36576D01*
X47549Y-36364D01*
X47550Y-36136D01*
X47550Y-37386D01*
X47462Y-37174D01*
X47301Y-37012D01*
X47089Y-36925D01*
X46861Y-36924D01*
X46649Y-37012D01*
X46487Y-37173D01*
X46400Y-37385D01*
X46399Y-37613D01*
X46487Y-37825D01*
X46648Y-37987D01*
X46860Y-38074D01*
X47088Y-38075D01*
X47300Y-37987D01*
X47462Y-37826D01*
X47549Y-37614D01*
X47550Y-37386D01*
X47550Y-42425D01*
X47386Y-42424D01*
X47174Y-42512D01*
X47012Y-42673D01*
X46925Y-42885D01*
X46924Y-43113D01*
X47012Y-43325D01*
X47173Y-43487D01*
X47385Y-43574D01*
X47613Y-43575D01*
X47825Y-43487D01*
X47987Y-43326D01*
X48074Y-43114D01*
X48075Y-42886D01*
X48075Y-45886D01*
X47987Y-45674D01*
X47826Y-45512D01*
X47614Y-45425D01*
X47386Y-45424D01*
X47174Y-45512D01*
X47012Y-45673D01*
X46925Y-45885D01*
X46924Y-46113D01*
X47012Y-46325D01*
X47173Y-46487D01*
X47385Y-46574D01*
X47613Y-46575D01*
X47825Y-46487D01*
X47987Y-46326D01*
X48074Y-46114D01*
X48075Y-45886D01*
X48075Y-47185D01*
X47914Y-47344D01*
X47914Y-47264D01*
X47878Y-47144D01*
X47617Y-47046D01*
X47339Y-47054D01*
X47121Y-47144D01*
X47085Y-47264D01*
X47500Y-47679D01*
X47914Y-47264D01*
X47914Y-47344D01*
X47906Y-47352D01*
X47863Y-47456D01*
X47570Y-47750D01*
X47863Y-48042D01*
X47906Y-48146D01*
X48102Y-48343D01*
X48360Y-48449D01*
X48638Y-48450D01*
X48877Y-48351D01*
X48930Y-48404D01*
X49040Y-48450D01*
X49375Y-48450D01*
X49450Y-48375D01*
X49450Y-48655D01*
X47914Y-48655D01*
X47914Y-48235D01*
X47500Y-47820D01*
X47429Y-47891D01*
X47429Y-47750D01*
X47136Y-47457D01*
X47093Y-47354D01*
X46897Y-47156D01*
X46639Y-47050D01*
X46361Y-47049D01*
X46104Y-47156D01*
X45906Y-47352D01*
X45800Y-47610D01*
X45799Y-47888D01*
X45906Y-48146D01*
X46102Y-48343D01*
X46360Y-48449D01*
X46638Y-48450D01*
X46896Y-48343D01*
X47093Y-48147D01*
X47136Y-48043D01*
X47429Y-47750D01*
X47429Y-47891D01*
X47085Y-48235D01*
X47121Y-48355D01*
X47382Y-48453D01*
X47660Y-48445D01*
X47878Y-48355D01*
X47914Y-48235D01*
X47914Y-48655D01*
X43619Y-48655D01*
X43619Y-28294D01*
X52323Y-28294D01*
X52225Y-28360D01*
X52095Y-28554D01*
X52050Y-28784D01*
X52050Y-29215D01*
X52095Y-29445D01*
X52225Y-29639D01*
X52420Y-29770D01*
X52650Y-29815D01*
X52879Y-29770D01*
X53074Y-29639D01*
X53152Y-29523D01*
X53261Y-29659D01*
X53466Y-29773D01*
X53507Y-29782D01*
X53600Y-29722D01*
X53600Y-29050D01*
X53592Y-29050D01*
X53592Y-28950D01*
X53600Y-28950D01*
X53600Y-28942D01*
X53700Y-28942D01*
X53700Y-28950D01*
X53707Y-28950D01*
X53707Y-29050D01*
X53700Y-29050D01*
X53700Y-29722D01*
X53792Y-29782D01*
X53833Y-29773D01*
X54038Y-29659D01*
X54147Y-29523D01*
X54225Y-29639D01*
X54420Y-29770D01*
X54615Y-29808D01*
X54575Y-29905D01*
X54574Y-30094D01*
X54647Y-30268D01*
X54700Y-30321D01*
X54700Y-30845D01*
X54652Y-30731D01*
X54519Y-30597D01*
X54344Y-30525D01*
X54155Y-30524D01*
X53981Y-30597D01*
X53847Y-30730D01*
X53800Y-30845D01*
X53800Y-30621D01*
X53852Y-30569D01*
X53924Y-30394D01*
X53925Y-30205D01*
X53852Y-30031D01*
X53719Y-29897D01*
X53544Y-29825D01*
X53355Y-29824D01*
X53181Y-29897D01*
X53047Y-30030D01*
X52975Y-30205D01*
X52974Y-30394D01*
X53047Y-30568D01*
X53100Y-30621D01*
X53100Y-35150D01*
X53126Y-35283D01*
X53202Y-35397D01*
X54899Y-37094D01*
X54899Y-37118D01*
X54991Y-37339D01*
X55159Y-37508D01*
X55380Y-37599D01*
X55618Y-37600D01*
X55839Y-37508D01*
X56000Y-37348D01*
X56159Y-37508D01*
X56380Y-37599D01*
X56618Y-37600D01*
X56839Y-37508D01*
X57008Y-37340D01*
X57099Y-37119D01*
X57100Y-36881D01*
X57008Y-36660D01*
X56840Y-36491D01*
X56619Y-36400D01*
X56381Y-36399D01*
X56160Y-36491D01*
X55999Y-36651D01*
X55840Y-36491D01*
X55619Y-36400D01*
X55381Y-36399D01*
X55249Y-36454D01*
X53800Y-35005D01*
X53800Y-31154D01*
X53847Y-31268D01*
X53900Y-31321D01*
X53900Y-34500D01*
X53926Y-34633D01*
X54002Y-34747D01*
X54918Y-35663D01*
X54991Y-35839D01*
X55159Y-36008D01*
X55380Y-36099D01*
X55618Y-36100D01*
X55839Y-36008D01*
X56000Y-35848D01*
X56159Y-36008D01*
X56380Y-36099D01*
X56618Y-36100D01*
X56839Y-36008D01*
X57008Y-35840D01*
X57099Y-35619D01*
X57100Y-35381D01*
X57008Y-35160D01*
X56840Y-34991D01*
X56619Y-34900D01*
X56381Y-34899D01*
X56160Y-34991D01*
X55999Y-35151D01*
X55840Y-34991D01*
X55619Y-34900D01*
X55381Y-34899D01*
X55213Y-34968D01*
X54600Y-34355D01*
X54600Y-31321D01*
X54652Y-31269D01*
X54700Y-31154D01*
X54700Y-33550D01*
X54726Y-33683D01*
X54802Y-33797D01*
X54900Y-33895D01*
X54899Y-34118D01*
X54991Y-34339D01*
X55159Y-34508D01*
X55380Y-34599D01*
X55618Y-34600D01*
X55839Y-34508D01*
X56000Y-34348D01*
X56159Y-34508D01*
X56380Y-34599D01*
X56618Y-34600D01*
X56839Y-34508D01*
X57008Y-34340D01*
X57014Y-34325D01*
X58761Y-34325D01*
X58898Y-34462D01*
X59110Y-34549D01*
X59338Y-34550D01*
X59550Y-34462D01*
X59712Y-34301D01*
X59799Y-34089D01*
X59800Y-33861D01*
X59712Y-33649D01*
X59599Y-33536D01*
X59551Y-33487D01*
X59339Y-33400D01*
X59111Y-33399D01*
X58899Y-33487D01*
X58761Y-33625D01*
X56973Y-33625D01*
X56840Y-33491D01*
X56619Y-33400D01*
X56381Y-33399D01*
X56160Y-33491D01*
X55999Y-33651D01*
X55840Y-33491D01*
X55619Y-33400D01*
X55400Y-33399D01*
X55400Y-30321D01*
X55452Y-30269D01*
X55524Y-30094D01*
X55525Y-29905D01*
X55473Y-29780D01*
X55650Y-29815D01*
X55879Y-29770D01*
X56074Y-29639D01*
X56150Y-29526D01*
X56225Y-29639D01*
X56420Y-29770D01*
X56650Y-29815D01*
X56879Y-29770D01*
X57074Y-29639D01*
X57150Y-29526D01*
X57225Y-29639D01*
X57420Y-29770D01*
X57650Y-29815D01*
X57879Y-29770D01*
X58074Y-29639D01*
X58150Y-29526D01*
X58225Y-29639D01*
X58420Y-29770D01*
X58650Y-29815D01*
X58879Y-29770D01*
X59074Y-29639D01*
X59150Y-29526D01*
X59225Y-29639D01*
X59420Y-29770D01*
X59650Y-29815D01*
X59879Y-29770D01*
X60074Y-29639D01*
X60204Y-29445D01*
X60250Y-29215D01*
X60250Y-28784D01*
X60204Y-28554D01*
X60074Y-28360D01*
X59976Y-28294D01*
X60923Y-28294D01*
X60825Y-28360D01*
X60695Y-28554D01*
X60650Y-28784D01*
X60650Y-29215D01*
X60695Y-29445D01*
X60825Y-29639D01*
X61020Y-29770D01*
X61250Y-29815D01*
X61479Y-29770D01*
X61674Y-29639D01*
X61750Y-29526D01*
X61825Y-29639D01*
X61950Y-29722D01*
X61950Y-29900D01*
X61976Y-30033D01*
X62052Y-30147D01*
X62450Y-30544D01*
X62450Y-31045D01*
X62288Y-31044D01*
X62067Y-31136D01*
X62013Y-31190D01*
X61959Y-31136D01*
X61738Y-31045D01*
X61500Y-31044D01*
X61279Y-31136D01*
X61225Y-31189D01*
X61172Y-31136D01*
X60951Y-31045D01*
X60713Y-31044D01*
X60492Y-31136D01*
X60438Y-31189D01*
X60385Y-31136D01*
X60164Y-31045D01*
X59926Y-31044D01*
X59705Y-31136D01*
X59657Y-31183D01*
X59652Y-31178D01*
X59599Y-31231D01*
X59574Y-31122D01*
X59350Y-31040D01*
X59112Y-31050D01*
X58939Y-31122D01*
X58914Y-31231D01*
X59257Y-31574D01*
X59262Y-31568D01*
X59333Y-31639D01*
X59327Y-31645D01*
X59333Y-31650D01*
X59262Y-31721D01*
X59257Y-31715D01*
X59186Y-31786D01*
X59186Y-31645D01*
X58843Y-31302D01*
X58734Y-31327D01*
X58652Y-31551D01*
X58662Y-31789D01*
X58734Y-31962D01*
X58843Y-31987D01*
X59186Y-31645D01*
X59186Y-31786D01*
X58914Y-32058D01*
X58939Y-32167D01*
X59163Y-32249D01*
X59401Y-32239D01*
X59574Y-32167D01*
X59599Y-32058D01*
X59599Y-32058D01*
X59652Y-32111D01*
X59657Y-32106D01*
X59704Y-32153D01*
X59925Y-32244D01*
X60163Y-32245D01*
X60384Y-32153D01*
X60438Y-32100D01*
X60491Y-32153D01*
X60712Y-32244D01*
X60950Y-32245D01*
X61171Y-32153D01*
X61225Y-32100D01*
X61278Y-32153D01*
X61499Y-32244D01*
X61737Y-32245D01*
X61958Y-32153D01*
X62012Y-32099D01*
X62066Y-32153D01*
X62067Y-32153D01*
X62067Y-32752D01*
X60244Y-34574D01*
X60155Y-34574D01*
X59981Y-34647D01*
X59847Y-34780D01*
X59775Y-34955D01*
X59774Y-35144D01*
X59847Y-35318D01*
X59980Y-35452D01*
X60155Y-35524D01*
X60344Y-35525D01*
X60518Y-35452D01*
X60652Y-35319D01*
X60724Y-35144D01*
X60724Y-35055D01*
X61662Y-34118D01*
X61737Y-34300D01*
X61875Y-34438D01*
X61875Y-38011D01*
X61737Y-38148D01*
X61650Y-38360D01*
X61649Y-38588D01*
X61737Y-38800D01*
X61898Y-38962D01*
X62110Y-39049D01*
X62338Y-39050D01*
X62450Y-39004D01*
X62450Y-39705D01*
G54D10*
G36*
X69050Y-45380D02*
X68379Y-46050D01*
X68186Y-46049D01*
X67974Y-46137D01*
X67812Y-46298D01*
X67800Y-46329D01*
X67787Y-46299D01*
X67626Y-46137D01*
X67414Y-46050D01*
X67186Y-46049D01*
X66974Y-46137D01*
X66812Y-46298D01*
X66725Y-46510D01*
X66724Y-46738D01*
X66812Y-46950D01*
X66973Y-47112D01*
X67180Y-47198D01*
X67020Y-47229D01*
X66825Y-47360D01*
X66750Y-47473D01*
X66674Y-47360D01*
X66479Y-47229D01*
X66250Y-47184D01*
X66020Y-47229D01*
X65929Y-47290D01*
X65929Y-46062D01*
X65919Y-45834D01*
X65851Y-45672D01*
X65745Y-45650D01*
X65420Y-45975D01*
X65745Y-46299D01*
X65851Y-46277D01*
X65929Y-46062D01*
X65929Y-47290D01*
X65825Y-47360D01*
X65750Y-47473D01*
X65674Y-47360D01*
X65674Y-46370D01*
X65350Y-46045D01*
X65279Y-46116D01*
X65279Y-45975D01*
X64954Y-45650D01*
X64848Y-45672D01*
X64847Y-45673D01*
X64837Y-45649D01*
X64676Y-45487D01*
X64464Y-45400D01*
X64236Y-45399D01*
X64024Y-45487D01*
X63862Y-45648D01*
X63775Y-45860D01*
X63774Y-46088D01*
X63862Y-46300D01*
X64023Y-46462D01*
X64235Y-46549D01*
X64463Y-46550D01*
X64675Y-46462D01*
X64837Y-46301D01*
X64847Y-46276D01*
X64848Y-46277D01*
X64954Y-46299D01*
X65279Y-45975D01*
X65279Y-46116D01*
X65025Y-46370D01*
X65047Y-46476D01*
X65262Y-46554D01*
X65490Y-46544D01*
X65652Y-46476D01*
X65674Y-46370D01*
X65674Y-47360D01*
X65674Y-47360D01*
X65479Y-47229D01*
X65250Y-47184D01*
X65020Y-47229D01*
X64825Y-47360D01*
X64750Y-47473D01*
X64674Y-47360D01*
X64479Y-47229D01*
X64250Y-47184D01*
X64020Y-47229D01*
X63825Y-47360D01*
X63750Y-47473D01*
X63674Y-47360D01*
X63479Y-47229D01*
X63393Y-47212D01*
X62740Y-46559D01*
X62630Y-46485D01*
X62500Y-46460D01*
X62354Y-46460D01*
X62354Y-46037D01*
X62344Y-45809D01*
X62276Y-45647D01*
X62170Y-45625D01*
X62099Y-45696D01*
X62099Y-45554D01*
X62077Y-45448D01*
X61862Y-45370D01*
X61634Y-45380D01*
X61472Y-45448D01*
X61450Y-45554D01*
X61775Y-45879D01*
X62099Y-45554D01*
X62099Y-45696D01*
X61845Y-45950D01*
X62170Y-46274D01*
X62276Y-46252D01*
X62354Y-46037D01*
X62354Y-46460D01*
X62058Y-46460D01*
X62077Y-46451D01*
X62099Y-46345D01*
X61775Y-46020D01*
X61450Y-46345D01*
X61472Y-46451D01*
X61494Y-46460D01*
X61046Y-46460D01*
X61100Y-46437D01*
X61262Y-46276D01*
X61272Y-46251D01*
X61273Y-46252D01*
X61379Y-46274D01*
X61704Y-45950D01*
X61379Y-45625D01*
X61273Y-45647D01*
X61272Y-45648D01*
X61262Y-45624D01*
X61175Y-45536D01*
X61175Y-42055D01*
X61102Y-41881D01*
X60969Y-41747D01*
X60794Y-41675D01*
X60605Y-41674D01*
X60431Y-41747D01*
X60368Y-41810D01*
X59231Y-41810D01*
X59169Y-41747D01*
X58994Y-41675D01*
X58805Y-41674D01*
X58631Y-41747D01*
X58497Y-41880D01*
X58425Y-42055D01*
X58424Y-42244D01*
X58497Y-42418D01*
X58630Y-42552D01*
X58805Y-42624D01*
X58994Y-42625D01*
X59168Y-42552D01*
X59231Y-42490D01*
X60368Y-42490D01*
X60430Y-42552D01*
X60605Y-42624D01*
X60794Y-42625D01*
X60968Y-42552D01*
X61102Y-42419D01*
X61174Y-42244D01*
X61175Y-42055D01*
X61175Y-45536D01*
X61101Y-45462D01*
X60889Y-45375D01*
X60661Y-45374D01*
X60449Y-45462D01*
X60311Y-45600D01*
X60144Y-45600D01*
X58599Y-44054D01*
X58600Y-43861D01*
X58570Y-43790D01*
X59368Y-43790D01*
X59430Y-43852D01*
X59605Y-43924D01*
X59794Y-43925D01*
X59968Y-43852D01*
X60102Y-43719D01*
X60174Y-43544D01*
X60175Y-43355D01*
X60102Y-43181D01*
X59969Y-43047D01*
X59794Y-42975D01*
X59605Y-42974D01*
X59431Y-43047D01*
X59368Y-43110D01*
X58587Y-43110D01*
X58604Y-43062D01*
X58594Y-42834D01*
X58526Y-42672D01*
X58420Y-42650D01*
X58349Y-42721D01*
X58349Y-42579D01*
X58327Y-42473D01*
X58112Y-42395D01*
X57884Y-42405D01*
X57722Y-42473D01*
X57700Y-42579D01*
X58025Y-42904D01*
X58349Y-42579D01*
X58349Y-42721D01*
X58095Y-42975D01*
X58101Y-42980D01*
X58030Y-43051D01*
X58025Y-43045D01*
X58019Y-43051D01*
X57948Y-42980D01*
X57954Y-42975D01*
X57629Y-42650D01*
X57579Y-42660D01*
X57579Y-41087D01*
X57569Y-40859D01*
X57501Y-40697D01*
X57395Y-40675D01*
X57324Y-40746D01*
X57324Y-40604D01*
X57302Y-40498D01*
X57087Y-40420D01*
X56859Y-40430D01*
X56697Y-40498D01*
X56675Y-40604D01*
X57000Y-40929D01*
X57324Y-40604D01*
X57324Y-40746D01*
X57070Y-41000D01*
X57395Y-41324D01*
X57501Y-41302D01*
X57579Y-41087D01*
X57579Y-42660D01*
X57523Y-42672D01*
X57445Y-42887D01*
X57455Y-43110D01*
X57324Y-43110D01*
X57324Y-41395D01*
X57000Y-41070D01*
X56929Y-41141D01*
X56929Y-41000D01*
X56604Y-40675D01*
X56498Y-40697D01*
X56497Y-40698D01*
X56487Y-40674D01*
X56326Y-40512D01*
X56114Y-40425D01*
X55886Y-40424D01*
X55674Y-40512D01*
X55512Y-40673D01*
X55425Y-40885D01*
X55424Y-41113D01*
X55512Y-41325D01*
X55673Y-41487D01*
X55885Y-41574D01*
X56113Y-41575D01*
X56325Y-41487D01*
X56487Y-41326D01*
X56497Y-41301D01*
X56498Y-41302D01*
X56604Y-41324D01*
X56929Y-41000D01*
X56929Y-41141D01*
X56675Y-41395D01*
X56697Y-41501D01*
X56912Y-41579D01*
X57140Y-41569D01*
X57302Y-41501D01*
X57324Y-41395D01*
X57324Y-43110D01*
X56631Y-43110D01*
X56569Y-43047D01*
X56394Y-42975D01*
X56205Y-42974D01*
X56031Y-43047D01*
X55897Y-43180D01*
X55825Y-43355D01*
X55824Y-43544D01*
X55897Y-43718D01*
X56030Y-43852D01*
X56205Y-43924D01*
X56394Y-43925D01*
X56568Y-43852D01*
X56631Y-43790D01*
X57479Y-43790D01*
X57450Y-43860D01*
X57449Y-44088D01*
X57537Y-44300D01*
X57698Y-44462D01*
X57910Y-44549D01*
X58105Y-44550D01*
X59752Y-46197D01*
X59866Y-46273D01*
X60000Y-46300D01*
X60311Y-46300D01*
X60448Y-46437D01*
X60503Y-46460D01*
X55575Y-46460D01*
X55575Y-43386D01*
X55487Y-43174D01*
X55326Y-43012D01*
X55114Y-42925D01*
X54886Y-42924D01*
X54725Y-42991D01*
X54725Y-40305D01*
X54652Y-40131D01*
X54519Y-39997D01*
X54344Y-39925D01*
X54155Y-39924D01*
X53981Y-39997D01*
X53918Y-40060D01*
X53250Y-40060D01*
X53119Y-40085D01*
X53083Y-40110D01*
X53009Y-40159D01*
X52309Y-40859D01*
X52235Y-40969D01*
X52210Y-41100D01*
X52210Y-41350D01*
X52225Y-41425D01*
X52224Y-41594D01*
X52297Y-41768D01*
X52430Y-41902D01*
X52605Y-41974D01*
X52794Y-41975D01*
X52968Y-41902D01*
X53102Y-41769D01*
X53174Y-41594D01*
X53175Y-41405D01*
X53102Y-41231D01*
X53001Y-41129D01*
X53390Y-40740D01*
X53918Y-40740D01*
X53980Y-40802D01*
X54155Y-40874D01*
X54344Y-40875D01*
X54518Y-40802D01*
X54652Y-40669D01*
X54724Y-40494D01*
X54725Y-40305D01*
X54725Y-42991D01*
X54674Y-43012D01*
X54512Y-43173D01*
X54500Y-43204D01*
X54487Y-43174D01*
X54326Y-43012D01*
X54114Y-42925D01*
X53886Y-42924D01*
X53674Y-43012D01*
X53512Y-43173D01*
X53425Y-43385D01*
X53424Y-43613D01*
X53512Y-43825D01*
X53673Y-43987D01*
X53885Y-44074D01*
X54113Y-44075D01*
X54325Y-43987D01*
X54487Y-43826D01*
X54499Y-43795D01*
X54512Y-43825D01*
X54673Y-43987D01*
X54885Y-44074D01*
X55113Y-44075D01*
X55325Y-43987D01*
X55487Y-43826D01*
X55574Y-43614D01*
X55575Y-43386D01*
X55575Y-46460D01*
X54681Y-46460D01*
X54619Y-46397D01*
X54444Y-46325D01*
X54255Y-46324D01*
X54081Y-46397D01*
X53947Y-46530D01*
X53875Y-46705D01*
X53874Y-46894D01*
X53947Y-47068D01*
X54080Y-47202D01*
X54255Y-47274D01*
X54444Y-47275D01*
X54618Y-47202D01*
X54681Y-47140D01*
X62359Y-47140D01*
X62726Y-47507D01*
X62695Y-47554D01*
X62650Y-47784D01*
X62650Y-48215D01*
X62678Y-48360D01*
X61821Y-48360D01*
X61850Y-48215D01*
X61850Y-47784D01*
X61804Y-47554D01*
X61674Y-47360D01*
X61479Y-47229D01*
X61250Y-47184D01*
X61020Y-47229D01*
X60825Y-47360D01*
X60747Y-47476D01*
X60638Y-47340D01*
X60433Y-47226D01*
X60392Y-47217D01*
X60300Y-47277D01*
X60300Y-47950D01*
X60307Y-47950D01*
X60307Y-48050D01*
X60300Y-48050D01*
X60300Y-48057D01*
X60200Y-48057D01*
X60200Y-48050D01*
X60200Y-47950D01*
X60200Y-47277D01*
X60107Y-47217D01*
X60066Y-47226D01*
X59861Y-47340D01*
X59750Y-47479D01*
X59638Y-47340D01*
X59433Y-47226D01*
X59392Y-47217D01*
X59300Y-47277D01*
X59300Y-47950D01*
X59650Y-47950D01*
X59850Y-47950D01*
X60200Y-47950D01*
X60200Y-48050D01*
X59850Y-48050D01*
X59650Y-48050D01*
X59300Y-48050D01*
X59300Y-48057D01*
X59200Y-48057D01*
X59200Y-48050D01*
X59192Y-48050D01*
X59192Y-47950D01*
X59200Y-47950D01*
X59200Y-47277D01*
X59107Y-47217D01*
X59066Y-47226D01*
X58861Y-47340D01*
X58752Y-47476D01*
X58674Y-47360D01*
X58479Y-47229D01*
X58250Y-47184D01*
X58020Y-47229D01*
X57825Y-47360D01*
X57750Y-47473D01*
X57674Y-47360D01*
X57479Y-47229D01*
X57250Y-47184D01*
X57020Y-47229D01*
X56825Y-47360D01*
X56750Y-47473D01*
X56674Y-47360D01*
X56479Y-47229D01*
X56250Y-47184D01*
X56020Y-47229D01*
X55825Y-47360D01*
X55695Y-47554D01*
X55650Y-47784D01*
X55650Y-48215D01*
X55678Y-48360D01*
X54840Y-48360D01*
X51840Y-45359D01*
X51840Y-39973D01*
X51987Y-39826D01*
X52074Y-39614D01*
X52075Y-39405D01*
X52390Y-39090D01*
X52390Y-39090D01*
X52439Y-39016D01*
X52464Y-38980D01*
X52464Y-38980D01*
X52489Y-38850D01*
X52490Y-38850D01*
X52490Y-37297D01*
X52555Y-37324D01*
X52644Y-37324D01*
X54759Y-39440D01*
X54759Y-39440D01*
X54833Y-39489D01*
X54869Y-39514D01*
X54869Y-39514D01*
X54999Y-39539D01*
X55000Y-39540D01*
X61209Y-39540D01*
X61410Y-39741D01*
X61279Y-39796D01*
X61225Y-39849D01*
X61172Y-39796D01*
X60951Y-39705D01*
X60713Y-39704D01*
X60492Y-39796D01*
X60438Y-39849D01*
X60385Y-39796D01*
X60164Y-39705D01*
X59926Y-39704D01*
X59705Y-39796D01*
X59651Y-39850D01*
X59597Y-39796D01*
X59376Y-39705D01*
X59138Y-39704D01*
X58917Y-39796D01*
X58748Y-39964D01*
X58657Y-40185D01*
X58656Y-40423D01*
X58748Y-40644D01*
X58916Y-40813D01*
X59137Y-40904D01*
X59375Y-40905D01*
X59596Y-40813D01*
X59650Y-40759D01*
X59704Y-40813D01*
X59925Y-40904D01*
X60163Y-40905D01*
X60384Y-40813D01*
X60438Y-40760D01*
X60491Y-40813D01*
X60712Y-40904D01*
X60950Y-40905D01*
X61171Y-40813D01*
X61225Y-40760D01*
X61278Y-40813D01*
X61499Y-40904D01*
X61737Y-40905D01*
X61958Y-40813D01*
X62012Y-40759D01*
X62066Y-40813D01*
X62154Y-40850D01*
X62002Y-41002D01*
X61926Y-41116D01*
X61900Y-41250D01*
X61900Y-41978D01*
X61847Y-42030D01*
X61775Y-42205D01*
X61774Y-42394D01*
X61847Y-42568D01*
X61980Y-42702D01*
X62155Y-42774D01*
X62344Y-42775D01*
X62457Y-42728D01*
X62630Y-42799D01*
X62819Y-42800D01*
X62993Y-42727D01*
X63127Y-42594D01*
X63199Y-42419D01*
X63199Y-42344D01*
X63822Y-41722D01*
X63898Y-41608D01*
X63898Y-41608D01*
X63925Y-41475D01*
X63925Y-40904D01*
X64099Y-40905D01*
X64320Y-40813D01*
X64374Y-40760D01*
X64427Y-40813D01*
X64648Y-40904D01*
X64886Y-40905D01*
X65107Y-40813D01*
X65161Y-40760D01*
X65214Y-40813D01*
X65410Y-40894D01*
X64730Y-41574D01*
X64655Y-41574D01*
X64481Y-41647D01*
X64347Y-41780D01*
X64275Y-41955D01*
X64274Y-42144D01*
X64347Y-42318D01*
X64480Y-42452D01*
X64655Y-42524D01*
X64844Y-42525D01*
X65018Y-42452D01*
X65152Y-42319D01*
X65224Y-42144D01*
X65224Y-42069D01*
X65844Y-41450D01*
X66564Y-41450D01*
X66474Y-41487D01*
X66312Y-41648D01*
X66225Y-41860D01*
X66224Y-42088D01*
X66312Y-42300D01*
X66473Y-42462D01*
X66685Y-42549D01*
X66913Y-42550D01*
X67125Y-42462D01*
X67287Y-42301D01*
X67297Y-42276D01*
X67298Y-42277D01*
X67404Y-42299D01*
X67729Y-41975D01*
X67404Y-41650D01*
X67298Y-41672D01*
X67297Y-41673D01*
X67287Y-41649D01*
X67126Y-41487D01*
X67035Y-41450D01*
X67552Y-41450D01*
X67497Y-41473D01*
X67475Y-41579D01*
X67800Y-41904D01*
X68124Y-41579D01*
X68102Y-41473D01*
X68039Y-41450D01*
X68305Y-41450D01*
X68855Y-42000D01*
X68681Y-42072D01*
X68547Y-42205D01*
X68475Y-42380D01*
X68474Y-42569D01*
X68547Y-42743D01*
X68600Y-42796D01*
X68600Y-43126D01*
X68414Y-43050D01*
X68379Y-43050D01*
X68379Y-42062D01*
X68369Y-41834D01*
X68301Y-41672D01*
X68195Y-41650D01*
X67870Y-41975D01*
X68195Y-42299D01*
X68301Y-42277D01*
X68379Y-42062D01*
X68379Y-43050D01*
X68186Y-43049D01*
X68124Y-43075D01*
X68124Y-42370D01*
X67800Y-42045D01*
X67475Y-42370D01*
X67497Y-42476D01*
X67712Y-42554D01*
X67940Y-42544D01*
X68102Y-42476D01*
X68124Y-42370D01*
X68124Y-43075D01*
X67974Y-43137D01*
X67812Y-43298D01*
X67800Y-43329D01*
X67787Y-43299D01*
X67626Y-43137D01*
X67414Y-43050D01*
X67186Y-43049D01*
X66974Y-43137D01*
X66836Y-43275D01*
X66750Y-43275D01*
X66616Y-43301D01*
X66502Y-43377D01*
X65188Y-44691D01*
X65152Y-44606D01*
X65019Y-44472D01*
X64844Y-44400D01*
X64655Y-44399D01*
X64481Y-44472D01*
X64347Y-44605D01*
X64275Y-44780D01*
X64274Y-44969D01*
X64347Y-45143D01*
X64480Y-45277D01*
X64655Y-45349D01*
X64730Y-45349D01*
X64777Y-45397D01*
X64891Y-45473D01*
X64891Y-45473D01*
X65025Y-45500D01*
X65041Y-45500D01*
X65025Y-45579D01*
X65350Y-45904D01*
X65674Y-45579D01*
X65652Y-45473D01*
X65462Y-45404D01*
X65472Y-45397D01*
X66865Y-44004D01*
X66973Y-44112D01*
X67185Y-44199D01*
X67413Y-44200D01*
X67625Y-44112D01*
X67787Y-43951D01*
X67799Y-43920D01*
X67812Y-43950D01*
X67973Y-44112D01*
X68185Y-44199D01*
X68413Y-44200D01*
X68600Y-44123D01*
X68600Y-44580D01*
X68555Y-44624D01*
X68480Y-44624D01*
X68306Y-44697D01*
X68172Y-44830D01*
X68100Y-45005D01*
X68099Y-45194D01*
X68172Y-45368D01*
X68305Y-45502D01*
X68480Y-45574D01*
X68669Y-45575D01*
X68843Y-45502D01*
X68977Y-45369D01*
X69049Y-45194D01*
X69049Y-45119D01*
X69050Y-45119D01*
X69050Y-45380D01*
X69050Y-45380D01*
G37*
G54D19*
X69050Y-45380D02*
X68379Y-46050D01*
X68186Y-46049D01*
X67974Y-46137D01*
X67812Y-46298D01*
X67800Y-46329D01*
X67787Y-46299D01*
X67626Y-46137D01*
X67414Y-46050D01*
X67186Y-46049D01*
X66974Y-46137D01*
X66812Y-46298D01*
X66725Y-46510D01*
X66724Y-46738D01*
X66812Y-46950D01*
X66973Y-47112D01*
X67180Y-47198D01*
X67020Y-47229D01*
X66825Y-47360D01*
X66750Y-47473D01*
X66674Y-47360D01*
X66479Y-47229D01*
X66250Y-47184D01*
X66020Y-47229D01*
X65929Y-47290D01*
X65929Y-46062D01*
X65919Y-45834D01*
X65851Y-45672D01*
X65745Y-45650D01*
X65420Y-45975D01*
X65745Y-46299D01*
X65851Y-46277D01*
X65929Y-46062D01*
X65929Y-47290D01*
X65825Y-47360D01*
X65750Y-47473D01*
X65674Y-47360D01*
X65674Y-46370D01*
X65350Y-46045D01*
X65279Y-46116D01*
X65279Y-45975D01*
X64954Y-45650D01*
X64848Y-45672D01*
X64847Y-45673D01*
X64837Y-45649D01*
X64676Y-45487D01*
X64464Y-45400D01*
X64236Y-45399D01*
X64024Y-45487D01*
X63862Y-45648D01*
X63775Y-45860D01*
X63774Y-46088D01*
X63862Y-46300D01*
X64023Y-46462D01*
X64235Y-46549D01*
X64463Y-46550D01*
X64675Y-46462D01*
X64837Y-46301D01*
X64847Y-46276D01*
X64848Y-46277D01*
X64954Y-46299D01*
X65279Y-45975D01*
X65279Y-46116D01*
X65025Y-46370D01*
X65047Y-46476D01*
X65262Y-46554D01*
X65490Y-46544D01*
X65652Y-46476D01*
X65674Y-46370D01*
X65674Y-47360D01*
X65674Y-47360D01*
X65479Y-47229D01*
X65250Y-47184D01*
X65020Y-47229D01*
X64825Y-47360D01*
X64750Y-47473D01*
X64674Y-47360D01*
X64479Y-47229D01*
X64250Y-47184D01*
X64020Y-47229D01*
X63825Y-47360D01*
X63750Y-47473D01*
X63674Y-47360D01*
X63479Y-47229D01*
X63393Y-47212D01*
X62740Y-46559D01*
X62630Y-46485D01*
X62500Y-46460D01*
X62354Y-46460D01*
X62354Y-46037D01*
X62344Y-45809D01*
X62276Y-45647D01*
X62170Y-45625D01*
X62099Y-45696D01*
X62099Y-45554D01*
X62077Y-45448D01*
X61862Y-45370D01*
X61634Y-45380D01*
X61472Y-45448D01*
X61450Y-45554D01*
X61775Y-45879D01*
X62099Y-45554D01*
X62099Y-45696D01*
X61845Y-45950D01*
X62170Y-46274D01*
X62276Y-46252D01*
X62354Y-46037D01*
X62354Y-46460D01*
X62058Y-46460D01*
X62077Y-46451D01*
X62099Y-46345D01*
X61775Y-46020D01*
X61450Y-46345D01*
X61472Y-46451D01*
X61494Y-46460D01*
X61046Y-46460D01*
X61100Y-46437D01*
X61262Y-46276D01*
X61272Y-46251D01*
X61273Y-46252D01*
X61379Y-46274D01*
X61704Y-45950D01*
X61379Y-45625D01*
X61273Y-45647D01*
X61272Y-45648D01*
X61262Y-45624D01*
X61175Y-45536D01*
X61175Y-42055D01*
X61102Y-41881D01*
X60969Y-41747D01*
X60794Y-41675D01*
X60605Y-41674D01*
X60431Y-41747D01*
X60368Y-41810D01*
X59231Y-41810D01*
X59169Y-41747D01*
X58994Y-41675D01*
X58805Y-41674D01*
X58631Y-41747D01*
X58497Y-41880D01*
X58425Y-42055D01*
X58424Y-42244D01*
X58497Y-42418D01*
X58630Y-42552D01*
X58805Y-42624D01*
X58994Y-42625D01*
X59168Y-42552D01*
X59231Y-42490D01*
X60368Y-42490D01*
X60430Y-42552D01*
X60605Y-42624D01*
X60794Y-42625D01*
X60968Y-42552D01*
X61102Y-42419D01*
X61174Y-42244D01*
X61175Y-42055D01*
X61175Y-45536D01*
X61101Y-45462D01*
X60889Y-45375D01*
X60661Y-45374D01*
X60449Y-45462D01*
X60311Y-45600D01*
X60144Y-45600D01*
X58599Y-44054D01*
X58600Y-43861D01*
X58570Y-43790D01*
X59368Y-43790D01*
X59430Y-43852D01*
X59605Y-43924D01*
X59794Y-43925D01*
X59968Y-43852D01*
X60102Y-43719D01*
X60174Y-43544D01*
X60175Y-43355D01*
X60102Y-43181D01*
X59969Y-43047D01*
X59794Y-42975D01*
X59605Y-42974D01*
X59431Y-43047D01*
X59368Y-43110D01*
X58587Y-43110D01*
X58604Y-43062D01*
X58594Y-42834D01*
X58526Y-42672D01*
X58420Y-42650D01*
X58349Y-42721D01*
X58349Y-42579D01*
X58327Y-42473D01*
X58112Y-42395D01*
X57884Y-42405D01*
X57722Y-42473D01*
X57700Y-42579D01*
X58025Y-42904D01*
X58349Y-42579D01*
X58349Y-42721D01*
X58095Y-42975D01*
X58101Y-42980D01*
X58030Y-43051D01*
X58025Y-43045D01*
X58019Y-43051D01*
X57948Y-42980D01*
X57954Y-42975D01*
X57629Y-42650D01*
X57579Y-42660D01*
X57579Y-41087D01*
X57569Y-40859D01*
X57501Y-40697D01*
X57395Y-40675D01*
X57324Y-40746D01*
X57324Y-40604D01*
X57302Y-40498D01*
X57087Y-40420D01*
X56859Y-40430D01*
X56697Y-40498D01*
X56675Y-40604D01*
X57000Y-40929D01*
X57324Y-40604D01*
X57324Y-40746D01*
X57070Y-41000D01*
X57395Y-41324D01*
X57501Y-41302D01*
X57579Y-41087D01*
X57579Y-42660D01*
X57523Y-42672D01*
X57445Y-42887D01*
X57455Y-43110D01*
X57324Y-43110D01*
X57324Y-41395D01*
X57000Y-41070D01*
X56929Y-41141D01*
X56929Y-41000D01*
X56604Y-40675D01*
X56498Y-40697D01*
X56497Y-40698D01*
X56487Y-40674D01*
X56326Y-40512D01*
X56114Y-40425D01*
X55886Y-40424D01*
X55674Y-40512D01*
X55512Y-40673D01*
X55425Y-40885D01*
X55424Y-41113D01*
X55512Y-41325D01*
X55673Y-41487D01*
X55885Y-41574D01*
X56113Y-41575D01*
X56325Y-41487D01*
X56487Y-41326D01*
X56497Y-41301D01*
X56498Y-41302D01*
X56604Y-41324D01*
X56929Y-41000D01*
X56929Y-41141D01*
X56675Y-41395D01*
X56697Y-41501D01*
X56912Y-41579D01*
X57140Y-41569D01*
X57302Y-41501D01*
X57324Y-41395D01*
X57324Y-43110D01*
X56631Y-43110D01*
X56569Y-43047D01*
X56394Y-42975D01*
X56205Y-42974D01*
X56031Y-43047D01*
X55897Y-43180D01*
X55825Y-43355D01*
X55824Y-43544D01*
X55897Y-43718D01*
X56030Y-43852D01*
X56205Y-43924D01*
X56394Y-43925D01*
X56568Y-43852D01*
X56631Y-43790D01*
X57479Y-43790D01*
X57450Y-43860D01*
X57449Y-44088D01*
X57537Y-44300D01*
X57698Y-44462D01*
X57910Y-44549D01*
X58105Y-44550D01*
X59752Y-46197D01*
X59866Y-46273D01*
X60000Y-46300D01*
X60311Y-46300D01*
X60448Y-46437D01*
X60503Y-46460D01*
X55575Y-46460D01*
X55575Y-43386D01*
X55487Y-43174D01*
X55326Y-43012D01*
X55114Y-42925D01*
X54886Y-42924D01*
X54725Y-42991D01*
X54725Y-40305D01*
X54652Y-40131D01*
X54519Y-39997D01*
X54344Y-39925D01*
X54155Y-39924D01*
X53981Y-39997D01*
X53918Y-40060D01*
X53250Y-40060D01*
X53119Y-40085D01*
X53083Y-40110D01*
X53009Y-40159D01*
X52309Y-40859D01*
X52235Y-40969D01*
X52210Y-41100D01*
X52210Y-41350D01*
X52225Y-41425D01*
X52224Y-41594D01*
X52297Y-41768D01*
X52430Y-41902D01*
X52605Y-41974D01*
X52794Y-41975D01*
X52968Y-41902D01*
X53102Y-41769D01*
X53174Y-41594D01*
X53175Y-41405D01*
X53102Y-41231D01*
X53001Y-41129D01*
X53390Y-40740D01*
X53918Y-40740D01*
X53980Y-40802D01*
X54155Y-40874D01*
X54344Y-40875D01*
X54518Y-40802D01*
X54652Y-40669D01*
X54724Y-40494D01*
X54725Y-40305D01*
X54725Y-42991D01*
X54674Y-43012D01*
X54512Y-43173D01*
X54500Y-43204D01*
X54487Y-43174D01*
X54326Y-43012D01*
X54114Y-42925D01*
X53886Y-42924D01*
X53674Y-43012D01*
X53512Y-43173D01*
X53425Y-43385D01*
X53424Y-43613D01*
X53512Y-43825D01*
X53673Y-43987D01*
X53885Y-44074D01*
X54113Y-44075D01*
X54325Y-43987D01*
X54487Y-43826D01*
X54499Y-43795D01*
X54512Y-43825D01*
X54673Y-43987D01*
X54885Y-44074D01*
X55113Y-44075D01*
X55325Y-43987D01*
X55487Y-43826D01*
X55574Y-43614D01*
X55575Y-43386D01*
X55575Y-46460D01*
X54681Y-46460D01*
X54619Y-46397D01*
X54444Y-46325D01*
X54255Y-46324D01*
X54081Y-46397D01*
X53947Y-46530D01*
X53875Y-46705D01*
X53874Y-46894D01*
X53947Y-47068D01*
X54080Y-47202D01*
X54255Y-47274D01*
X54444Y-47275D01*
X54618Y-47202D01*
X54681Y-47140D01*
X62359Y-47140D01*
X62726Y-47507D01*
X62695Y-47554D01*
X62650Y-47784D01*
X62650Y-48215D01*
X62678Y-48360D01*
X61821Y-48360D01*
X61850Y-48215D01*
X61850Y-47784D01*
X61804Y-47554D01*
X61674Y-47360D01*
X61479Y-47229D01*
X61250Y-47184D01*
X61020Y-47229D01*
X60825Y-47360D01*
X60747Y-47476D01*
X60638Y-47340D01*
X60433Y-47226D01*
X60392Y-47217D01*
X60300Y-47277D01*
X60300Y-47950D01*
X60307Y-47950D01*
X60307Y-48050D01*
X60300Y-48050D01*
X60300Y-48057D01*
X60200Y-48057D01*
X60200Y-48050D01*
X60200Y-47950D01*
X60200Y-47277D01*
X60107Y-47217D01*
X60066Y-47226D01*
X59861Y-47340D01*
X59750Y-47479D01*
X59638Y-47340D01*
X59433Y-47226D01*
X59392Y-47217D01*
X59300Y-47277D01*
X59300Y-47950D01*
X59650Y-47950D01*
X59850Y-47950D01*
X60200Y-47950D01*
X60200Y-48050D01*
X59850Y-48050D01*
X59650Y-48050D01*
X59300Y-48050D01*
X59300Y-48057D01*
X59200Y-48057D01*
X59200Y-48050D01*
X59192Y-48050D01*
X59192Y-47950D01*
X59200Y-47950D01*
X59200Y-47277D01*
X59107Y-47217D01*
X59066Y-47226D01*
X58861Y-47340D01*
X58752Y-47476D01*
X58674Y-47360D01*
X58479Y-47229D01*
X58250Y-47184D01*
X58020Y-47229D01*
X57825Y-47360D01*
X57750Y-47473D01*
X57674Y-47360D01*
X57479Y-47229D01*
X57250Y-47184D01*
X57020Y-47229D01*
X56825Y-47360D01*
X56750Y-47473D01*
X56674Y-47360D01*
X56479Y-47229D01*
X56250Y-47184D01*
X56020Y-47229D01*
X55825Y-47360D01*
X55695Y-47554D01*
X55650Y-47784D01*
X55650Y-48215D01*
X55678Y-48360D01*
X54840Y-48360D01*
X51840Y-45359D01*
X51840Y-39973D01*
X51987Y-39826D01*
X52074Y-39614D01*
X52075Y-39405D01*
X52390Y-39090D01*
X52390Y-39090D01*
X52439Y-39016D01*
X52464Y-38980D01*
X52464Y-38980D01*
X52489Y-38850D01*
X52490Y-38850D01*
X52490Y-37297D01*
X52555Y-37324D01*
X52644Y-37324D01*
X54759Y-39440D01*
X54759Y-39440D01*
X54833Y-39489D01*
X54869Y-39514D01*
X54869Y-39514D01*
X54999Y-39539D01*
X55000Y-39540D01*
X61209Y-39540D01*
X61410Y-39741D01*
X61279Y-39796D01*
X61225Y-39849D01*
X61172Y-39796D01*
X60951Y-39705D01*
X60713Y-39704D01*
X60492Y-39796D01*
X60438Y-39849D01*
X60385Y-39796D01*
X60164Y-39705D01*
X59926Y-39704D01*
X59705Y-39796D01*
X59651Y-39850D01*
X59597Y-39796D01*
X59376Y-39705D01*
X59138Y-39704D01*
X58917Y-39796D01*
X58748Y-39964D01*
X58657Y-40185D01*
X58656Y-40423D01*
X58748Y-40644D01*
X58916Y-40813D01*
X59137Y-40904D01*
X59375Y-40905D01*
X59596Y-40813D01*
X59650Y-40759D01*
X59704Y-40813D01*
X59925Y-40904D01*
X60163Y-40905D01*
X60384Y-40813D01*
X60438Y-40760D01*
X60491Y-40813D01*
X60712Y-40904D01*
X60950Y-40905D01*
X61171Y-40813D01*
X61225Y-40760D01*
X61278Y-40813D01*
X61499Y-40904D01*
X61737Y-40905D01*
X61958Y-40813D01*
X62012Y-40759D01*
X62066Y-40813D01*
X62154Y-40850D01*
X62002Y-41002D01*
X61926Y-41116D01*
X61900Y-41250D01*
X61900Y-41978D01*
X61847Y-42030D01*
X61775Y-42205D01*
X61774Y-42394D01*
X61847Y-42568D01*
X61980Y-42702D01*
X62155Y-42774D01*
X62344Y-42775D01*
X62457Y-42728D01*
X62630Y-42799D01*
X62819Y-42800D01*
X62993Y-42727D01*
X63127Y-42594D01*
X63199Y-42419D01*
X63199Y-42344D01*
X63822Y-41722D01*
X63898Y-41608D01*
X63898Y-41608D01*
X63925Y-41475D01*
X63925Y-40904D01*
X64099Y-40905D01*
X64320Y-40813D01*
X64374Y-40760D01*
X64427Y-40813D01*
X64648Y-40904D01*
X64886Y-40905D01*
X65107Y-40813D01*
X65161Y-40760D01*
X65214Y-40813D01*
X65410Y-40894D01*
X64730Y-41574D01*
X64655Y-41574D01*
X64481Y-41647D01*
X64347Y-41780D01*
X64275Y-41955D01*
X64274Y-42144D01*
X64347Y-42318D01*
X64480Y-42452D01*
X64655Y-42524D01*
X64844Y-42525D01*
X65018Y-42452D01*
X65152Y-42319D01*
X65224Y-42144D01*
X65224Y-42069D01*
X65844Y-41450D01*
X66564Y-41450D01*
X66474Y-41487D01*
X66312Y-41648D01*
X66225Y-41860D01*
X66224Y-42088D01*
X66312Y-42300D01*
X66473Y-42462D01*
X66685Y-42549D01*
X66913Y-42550D01*
X67125Y-42462D01*
X67287Y-42301D01*
X67297Y-42276D01*
X67298Y-42277D01*
X67404Y-42299D01*
X67729Y-41975D01*
X67404Y-41650D01*
X67298Y-41672D01*
X67297Y-41673D01*
X67287Y-41649D01*
X67126Y-41487D01*
X67035Y-41450D01*
X67552Y-41450D01*
X67497Y-41473D01*
X67475Y-41579D01*
X67800Y-41904D01*
X68124Y-41579D01*
X68102Y-41473D01*
X68039Y-41450D01*
X68305Y-41450D01*
X68855Y-42000D01*
X68681Y-42072D01*
X68547Y-42205D01*
X68475Y-42380D01*
X68474Y-42569D01*
X68547Y-42743D01*
X68600Y-42796D01*
X68600Y-43126D01*
X68414Y-43050D01*
X68379Y-43050D01*
X68379Y-42062D01*
X68369Y-41834D01*
X68301Y-41672D01*
X68195Y-41650D01*
X67870Y-41975D01*
X68195Y-42299D01*
X68301Y-42277D01*
X68379Y-42062D01*
X68379Y-43050D01*
X68186Y-43049D01*
X68124Y-43075D01*
X68124Y-42370D01*
X67800Y-42045D01*
X67475Y-42370D01*
X67497Y-42476D01*
X67712Y-42554D01*
X67940Y-42544D01*
X68102Y-42476D01*
X68124Y-42370D01*
X68124Y-43075D01*
X67974Y-43137D01*
X67812Y-43298D01*
X67800Y-43329D01*
X67787Y-43299D01*
X67626Y-43137D01*
X67414Y-43050D01*
X67186Y-43049D01*
X66974Y-43137D01*
X66836Y-43275D01*
X66750Y-43275D01*
X66616Y-43301D01*
X66502Y-43377D01*
X65188Y-44691D01*
X65152Y-44606D01*
X65019Y-44472D01*
X64844Y-44400D01*
X64655Y-44399D01*
X64481Y-44472D01*
X64347Y-44605D01*
X64275Y-44780D01*
X64274Y-44969D01*
X64347Y-45143D01*
X64480Y-45277D01*
X64655Y-45349D01*
X64730Y-45349D01*
X64777Y-45397D01*
X64891Y-45473D01*
X64891Y-45473D01*
X65025Y-45500D01*
X65041Y-45500D01*
X65025Y-45579D01*
X65350Y-45904D01*
X65674Y-45579D01*
X65652Y-45473D01*
X65462Y-45404D01*
X65472Y-45397D01*
X66865Y-44004D01*
X66973Y-44112D01*
X67185Y-44199D01*
X67413Y-44200D01*
X67625Y-44112D01*
X67787Y-43951D01*
X67799Y-43920D01*
X67812Y-43950D01*
X67973Y-44112D01*
X68185Y-44199D01*
X68413Y-44200D01*
X68600Y-44123D01*
X68600Y-44580D01*
X68555Y-44624D01*
X68480Y-44624D01*
X68306Y-44697D01*
X68172Y-44830D01*
X68100Y-45005D01*
X68099Y-45194D01*
X68172Y-45368D01*
X68305Y-45502D01*
X68480Y-45574D01*
X68669Y-45575D01*
X68843Y-45502D01*
X68977Y-45369D01*
X69049Y-45194D01*
X69049Y-45119D01*
X69050Y-45119D01*
X69050Y-45380D01*
M02*
