G04 (created by PCBNEW (2013-07-07 BZR 4022)-stable) date 1/23/2017 8:00:42 PM*
%MOIN*%
G04 Gerber Fmt 3.4, Leading zero omitted, Abs format*
%FSLAX34Y34*%
G01*
G70*
G90*
G04 APERTURE LIST*
%ADD10C,0.00590551*%
%ADD11C,0.055*%
%ADD12R,0.035X0.013*%
%ADD13R,0.013X0.035*%
%ADD14R,0.08X0.08*%
%ADD15C,0.08*%
%ADD16R,0.0394X0.0236*%
%ADD17R,0.025X0.045*%
%ADD18R,0.0315X0.0394*%
%ADD19O,0.06X0.1*%
%ADD20R,0.0394X0.0098*%
%ADD21R,0.0098X0.0394*%
%ADD22R,0.0905X0.0432*%
%ADD23R,0.0905X0.0433*%
%ADD24C,0.06*%
%ADD25C,0.035*%
%ADD26C,0.008*%
%ADD27C,0.01*%
G04 APERTURE END LIST*
G54D10*
G54D11*
X56000Y-41000D03*
X57000Y-41000D03*
X54000Y-43500D03*
X55000Y-43500D03*
G54D12*
X53440Y-41400D03*
X53440Y-41200D03*
X53440Y-41600D03*
X53440Y-41800D03*
X54580Y-41400D03*
X54580Y-41200D03*
X54580Y-41600D03*
X54580Y-41800D03*
G54D13*
X53900Y-42080D03*
X54100Y-42080D03*
X54280Y-42080D03*
X53720Y-42080D03*
X54280Y-40900D03*
X54100Y-40900D03*
X53900Y-40900D03*
X53720Y-40900D03*
G54D14*
X49500Y-29250D03*
G54D15*
X48500Y-29250D03*
X47500Y-29250D03*
X46500Y-29250D03*
G54D14*
X49500Y-47750D03*
G54D15*
X48500Y-47750D03*
X47500Y-47750D03*
X46500Y-47750D03*
G54D16*
X64941Y-33775D03*
X64109Y-33400D03*
X64941Y-33025D03*
G54D11*
X49975Y-36250D03*
X46975Y-36250D03*
X51500Y-36500D03*
X51500Y-39500D03*
X51500Y-32000D03*
X51500Y-35000D03*
X47500Y-46000D03*
X47500Y-43000D03*
X49500Y-43000D03*
X49500Y-46000D03*
X62225Y-33975D03*
X59225Y-33975D03*
X68075Y-36025D03*
X68075Y-33025D03*
X62225Y-38475D03*
X59225Y-38475D03*
X67300Y-36975D03*
X64300Y-36975D03*
X49975Y-37500D03*
X46975Y-37500D03*
X49975Y-35000D03*
X46975Y-35000D03*
X49975Y-33750D03*
X46975Y-33750D03*
X49975Y-32500D03*
X46975Y-32500D03*
X67300Y-43625D03*
X67300Y-46625D03*
X68300Y-43625D03*
X68300Y-46625D03*
X64350Y-45975D03*
X65350Y-45975D03*
X66800Y-41975D03*
X67800Y-41975D03*
X58025Y-43975D03*
X58025Y-42975D03*
X60775Y-45950D03*
X61775Y-45950D03*
G54D17*
X45800Y-35000D03*
X45200Y-35000D03*
X45800Y-33750D03*
X45200Y-33750D03*
X45800Y-32500D03*
X45200Y-32500D03*
X45800Y-37500D03*
X45200Y-37500D03*
X45800Y-36250D03*
X45200Y-36250D03*
G54D18*
X65400Y-36008D03*
X65025Y-35142D03*
X65775Y-35142D03*
G54D10*
G36*
X61189Y-43583D02*
X60598Y-43583D01*
X60598Y-43366D01*
X61189Y-43366D01*
X61189Y-43583D01*
X61189Y-43583D01*
G37*
G36*
X63001Y-43583D02*
X62410Y-43583D01*
X62410Y-43366D01*
X63001Y-43366D01*
X63001Y-43583D01*
X63001Y-43583D01*
G37*
G36*
X61121Y-43691D02*
X61121Y-44282D01*
X60904Y-44282D01*
X60904Y-43691D01*
X61121Y-43691D01*
X61121Y-43691D01*
G37*
G36*
X61436Y-43691D02*
X61436Y-44282D01*
X61219Y-44282D01*
X61219Y-43691D01*
X61436Y-43691D01*
X61436Y-43691D01*
G37*
G36*
X61751Y-43691D02*
X61751Y-44282D01*
X61534Y-44282D01*
X61534Y-43691D01*
X61751Y-43691D01*
X61751Y-43691D01*
G37*
G36*
X62065Y-43691D02*
X62065Y-44282D01*
X61848Y-44282D01*
X61848Y-43691D01*
X62065Y-43691D01*
X62065Y-43691D01*
G37*
G36*
X62380Y-43691D02*
X62380Y-44282D01*
X62163Y-44282D01*
X62163Y-43691D01*
X62380Y-43691D01*
X62380Y-43691D01*
G37*
G36*
X62695Y-43691D02*
X62695Y-44282D01*
X62478Y-44282D01*
X62478Y-43691D01*
X62695Y-43691D01*
X62695Y-43691D01*
G37*
G36*
X62695Y-42667D02*
X62695Y-43258D01*
X62478Y-43258D01*
X62478Y-42667D01*
X62695Y-42667D01*
X62695Y-42667D01*
G37*
G36*
X62380Y-42667D02*
X62380Y-43258D01*
X62163Y-43258D01*
X62163Y-42667D01*
X62380Y-42667D01*
X62380Y-42667D01*
G37*
G36*
X62065Y-42667D02*
X62065Y-43258D01*
X61848Y-43258D01*
X61848Y-42667D01*
X62065Y-42667D01*
X62065Y-42667D01*
G37*
G36*
X61751Y-42667D02*
X61751Y-43258D01*
X61534Y-43258D01*
X61534Y-42667D01*
X61751Y-42667D01*
X61751Y-42667D01*
G37*
G36*
X61436Y-42667D02*
X61436Y-43258D01*
X61219Y-43258D01*
X61219Y-42667D01*
X61436Y-42667D01*
X61436Y-42667D01*
G37*
G36*
X61121Y-42667D02*
X61121Y-43258D01*
X60904Y-43258D01*
X60904Y-42667D01*
X61121Y-42667D01*
X61121Y-42667D01*
G37*
G54D19*
X68250Y-48000D03*
X67250Y-48000D03*
X66250Y-48000D03*
X63250Y-48000D03*
X64250Y-48000D03*
X65250Y-48000D03*
X61250Y-48000D03*
X60250Y-48000D03*
X59250Y-48000D03*
X57250Y-48000D03*
X56250Y-48000D03*
X68250Y-29000D03*
X67250Y-29000D03*
X66250Y-29000D03*
X65250Y-29000D03*
X64250Y-29000D03*
X63250Y-29000D03*
X62250Y-29000D03*
X61250Y-29000D03*
X59650Y-29000D03*
X58650Y-29000D03*
X57650Y-29000D03*
X56650Y-29000D03*
X55650Y-29000D03*
X54650Y-29000D03*
X53650Y-29000D03*
X52650Y-29000D03*
X58250Y-48000D03*
G54D20*
X64204Y-43770D03*
X64204Y-43377D03*
X64204Y-43573D03*
X64204Y-43967D03*
X64204Y-43180D03*
X64204Y-42983D03*
G54D21*
X64558Y-42619D03*
X64755Y-42619D03*
X64952Y-42619D03*
X65345Y-42619D03*
X65148Y-42619D03*
X65542Y-42619D03*
G54D20*
X65896Y-42983D03*
X65896Y-43180D03*
X65896Y-43967D03*
X65896Y-43573D03*
X65896Y-43377D03*
X65896Y-43770D03*
G54D21*
X65542Y-44331D03*
X65148Y-44331D03*
X65345Y-44331D03*
X64952Y-44331D03*
X64755Y-44331D03*
X64558Y-44331D03*
G54D22*
X47142Y-41747D03*
X44858Y-41747D03*
X44858Y-40253D03*
G54D23*
X47142Y-40252D03*
G54D24*
X55500Y-38500D03*
X56500Y-38500D03*
X55500Y-37000D03*
X56500Y-37000D03*
X55500Y-35500D03*
X56500Y-35500D03*
X55500Y-34000D03*
X56500Y-34000D03*
X65555Y-31645D03*
X64768Y-31645D03*
X63981Y-31645D03*
X63193Y-31645D03*
X62407Y-31645D03*
X61619Y-31645D03*
X60832Y-31645D03*
X60045Y-31645D03*
X59257Y-31645D03*
X59257Y-40305D03*
X60045Y-40305D03*
X60832Y-40305D03*
X61619Y-40305D03*
X62407Y-40305D03*
X63193Y-40305D03*
X63981Y-40305D03*
X64768Y-40305D03*
X65555Y-40305D03*
X66343Y-40305D03*
X66350Y-31650D03*
G54D25*
X51900Y-48000D03*
X54250Y-40400D03*
X52700Y-41500D03*
X64750Y-44875D03*
X64325Y-35950D03*
X52650Y-36850D03*
X53450Y-30300D03*
X55050Y-30000D03*
X63675Y-42975D03*
X61325Y-42225D03*
X64125Y-37825D03*
X68950Y-42475D03*
X68575Y-45100D03*
X62725Y-42325D03*
X62250Y-42300D03*
X60250Y-35050D03*
X56300Y-43450D03*
X59700Y-43450D03*
X64750Y-42050D03*
X60700Y-42150D03*
X58900Y-42150D03*
X54350Y-46800D03*
X52575Y-30700D03*
X54250Y-31000D03*
G54D26*
X56500Y-47250D02*
X57250Y-48000D01*
X55850Y-47250D02*
X56500Y-47250D01*
X55100Y-48000D02*
X55850Y-47250D01*
X51900Y-48000D02*
X55100Y-48000D01*
X52700Y-41500D02*
X52700Y-43350D01*
X56850Y-42800D02*
X58025Y-43975D01*
X56500Y-42800D02*
X56850Y-42800D01*
X55300Y-44000D02*
X56500Y-42800D01*
X53350Y-44000D02*
X55300Y-44000D01*
X52700Y-43350D02*
X53350Y-44000D01*
X53000Y-41500D02*
X52900Y-41500D01*
X54280Y-40430D02*
X54280Y-40900D01*
X54250Y-40400D02*
X54280Y-40430D01*
X52900Y-41500D02*
X52700Y-41500D01*
G54D27*
X49975Y-32500D02*
X49975Y-33750D01*
X49975Y-33750D02*
X50750Y-34525D01*
X50750Y-34525D02*
X50750Y-35475D01*
X50750Y-35475D02*
X49975Y-36250D01*
X53440Y-41800D02*
X53050Y-41800D01*
X53100Y-41400D02*
X53440Y-41400D01*
X53000Y-41500D02*
X53100Y-41400D01*
X53000Y-41750D02*
X53000Y-41500D01*
X53050Y-41800D02*
X53000Y-41750D01*
X66350Y-31650D02*
X67400Y-31650D01*
X68500Y-34250D02*
X65775Y-34250D01*
X68750Y-34000D02*
X68500Y-34250D01*
X68750Y-33000D02*
X68750Y-34000D01*
X67400Y-31650D02*
X68750Y-33000D01*
X65896Y-43967D02*
X66433Y-43967D01*
X66775Y-43625D02*
X67300Y-43625D01*
X66433Y-43967D02*
X66775Y-43625D01*
X62587Y-43987D02*
X62587Y-46113D01*
X61225Y-46400D02*
X60775Y-45950D01*
X62300Y-46400D02*
X61225Y-46400D01*
X62587Y-46113D02*
X62300Y-46400D01*
X62587Y-43987D02*
X62988Y-43987D01*
X63100Y-43475D02*
X62706Y-43475D01*
X63200Y-43575D02*
X63100Y-43475D01*
X63200Y-43775D02*
X63200Y-43575D01*
X62988Y-43987D02*
X63200Y-43775D01*
X68075Y-36025D02*
X68075Y-36400D01*
X68225Y-36550D02*
X68225Y-36975D01*
X68075Y-36400D02*
X68225Y-36550D01*
X64941Y-33775D02*
X65375Y-33775D01*
X65775Y-34175D02*
X65775Y-34250D01*
X65775Y-34250D02*
X65775Y-35142D01*
X65375Y-33775D02*
X65775Y-34175D01*
X65775Y-35142D02*
X67300Y-36667D01*
X67300Y-36667D02*
X67300Y-36975D01*
X67300Y-36975D02*
X68225Y-36975D01*
X67300Y-43125D02*
X67300Y-43625D01*
X67550Y-42875D02*
X67300Y-43125D01*
X69475Y-42875D02*
X67550Y-42875D01*
X70100Y-42250D02*
X69475Y-42875D01*
X70100Y-38850D02*
X70100Y-42250D01*
X68225Y-36975D02*
X70100Y-38850D01*
X64755Y-44331D02*
X64755Y-44870D01*
X64755Y-44870D02*
X64750Y-44875D01*
X68300Y-43625D02*
X68925Y-43625D01*
X57300Y-45900D02*
X57300Y-47975D01*
X58025Y-45175D02*
X57300Y-45900D01*
X58025Y-43975D02*
X58025Y-45175D01*
X68987Y-43687D02*
X69025Y-43725D01*
X68925Y-43625D02*
X68987Y-43687D01*
X69025Y-43725D02*
X69025Y-48450D01*
X69025Y-48450D02*
X68750Y-48725D01*
X68750Y-48725D02*
X58050Y-48725D01*
X58050Y-48725D02*
X57300Y-47975D01*
X67300Y-43625D02*
X68300Y-43625D01*
X60775Y-45950D02*
X60775Y-45025D01*
X60775Y-45025D02*
X61013Y-44787D01*
X61013Y-44787D02*
X61013Y-43987D01*
G54D26*
X51500Y-36500D02*
X51850Y-36500D01*
X59850Y-36350D02*
X62225Y-33975D01*
X55250Y-36350D02*
X59850Y-36350D01*
X54200Y-37400D02*
X55250Y-36350D01*
X52750Y-37400D02*
X54200Y-37400D01*
X51850Y-36500D02*
X52750Y-37400D01*
X51500Y-36500D02*
X51100Y-36500D01*
X50750Y-41750D02*
X49500Y-43000D01*
X50750Y-36850D02*
X50750Y-41750D01*
X51100Y-36500D02*
X50750Y-36850D01*
G54D27*
X47500Y-43000D02*
X49500Y-43000D01*
X58300Y-47975D02*
X58300Y-45800D01*
X61225Y-39475D02*
X62225Y-38475D01*
X59100Y-39475D02*
X61225Y-39475D01*
X58775Y-39800D02*
X59100Y-39475D01*
X58775Y-40500D02*
X58775Y-39800D01*
X59250Y-40975D02*
X58775Y-40500D01*
X59250Y-44850D02*
X59250Y-40975D01*
X58300Y-45800D02*
X59250Y-44850D01*
X45200Y-33750D02*
X44750Y-33750D01*
X63913Y-32500D02*
X64768Y-31645D01*
X57500Y-32500D02*
X63913Y-32500D01*
X56500Y-31500D02*
X57500Y-32500D01*
X45250Y-31500D02*
X56500Y-31500D01*
X44500Y-32250D02*
X45250Y-31500D01*
X44500Y-33500D02*
X44500Y-32250D01*
X44750Y-33750D02*
X44500Y-33500D01*
X65400Y-36008D02*
X65400Y-36350D01*
X64775Y-36975D02*
X64300Y-36975D01*
X65400Y-36350D02*
X64775Y-36975D01*
X64383Y-36008D02*
X65400Y-36008D01*
X64325Y-35950D02*
X64383Y-36008D01*
X65400Y-36008D02*
X65267Y-36008D01*
G54D26*
X49100Y-35875D02*
X49975Y-35000D01*
X49100Y-37850D02*
X49100Y-35875D01*
X49500Y-38250D02*
X49100Y-37850D01*
X50000Y-38250D02*
X49500Y-38250D01*
X50450Y-37800D02*
X50000Y-38250D01*
X50450Y-36850D02*
X50450Y-37800D01*
X51200Y-36100D02*
X50450Y-36850D01*
X51300Y-36100D02*
X51200Y-36100D01*
X51900Y-36100D02*
X51300Y-36100D01*
X52650Y-36850D02*
X51900Y-36100D01*
G54D27*
X64941Y-33025D02*
X51275Y-33025D01*
X45200Y-32050D02*
X45200Y-32500D01*
X45500Y-31750D02*
X45200Y-32050D01*
X50000Y-31750D02*
X45500Y-31750D01*
X51275Y-33025D02*
X50000Y-31750D01*
X68075Y-33025D02*
X65735Y-33025D01*
X65735Y-33025D02*
X65555Y-32845D01*
X64941Y-33025D02*
X65375Y-33025D01*
X65555Y-32845D02*
X65555Y-31645D01*
X65375Y-33025D02*
X65555Y-32845D01*
X66250Y-29000D02*
X66250Y-29450D01*
X65400Y-30300D02*
X53450Y-30300D01*
X66250Y-29450D02*
X65400Y-30300D01*
X65300Y-29750D02*
X65050Y-30000D01*
X65050Y-30000D02*
X55050Y-30000D01*
X65300Y-28975D02*
X65300Y-29750D01*
G54D26*
X54580Y-41800D02*
X56200Y-41800D01*
X56200Y-41800D02*
X57000Y-41000D01*
X55350Y-41300D02*
X55450Y-41200D01*
X55250Y-41400D02*
X55350Y-41300D01*
X54580Y-41400D02*
X55250Y-41400D01*
X57000Y-40950D02*
X57000Y-41000D01*
X56550Y-40500D02*
X57000Y-40950D01*
X55750Y-40500D02*
X56550Y-40500D01*
X55450Y-40800D02*
X55750Y-40500D01*
X55450Y-41200D02*
X55450Y-40800D01*
X47142Y-40252D02*
X48002Y-40252D01*
X46850Y-48400D02*
X47500Y-47750D01*
X45750Y-48400D02*
X46850Y-48400D01*
X45350Y-48000D02*
X45750Y-48400D01*
X45350Y-43600D02*
X45350Y-48000D01*
X46600Y-42350D02*
X45350Y-43600D01*
X47850Y-42350D02*
X46600Y-42350D01*
X48200Y-42000D02*
X47850Y-42350D01*
X48200Y-40450D02*
X48200Y-42000D01*
X48002Y-40252D02*
X48200Y-40450D01*
G54D27*
X44858Y-40253D02*
X47141Y-40253D01*
X47141Y-40253D02*
X47142Y-40252D01*
X45200Y-37500D02*
X44750Y-37500D01*
X44000Y-39395D02*
X44858Y-40253D01*
X44000Y-38250D02*
X44000Y-39395D01*
X44750Y-37500D02*
X44000Y-38250D01*
X45200Y-37500D02*
X45200Y-36250D01*
X45200Y-35000D02*
X45200Y-36250D01*
X64952Y-44331D02*
X64952Y-43973D01*
X65345Y-43995D02*
X65345Y-44331D01*
X65250Y-43900D02*
X65345Y-43995D01*
X65025Y-43900D02*
X65250Y-43900D01*
X64952Y-43973D02*
X65025Y-43900D01*
X65896Y-42983D02*
X66267Y-42983D01*
X67800Y-42275D02*
X67800Y-41975D01*
X67725Y-42350D02*
X67800Y-42275D01*
X66900Y-42350D02*
X67725Y-42350D01*
X66267Y-42983D02*
X66900Y-42350D01*
X64204Y-42983D02*
X63683Y-42983D01*
X61328Y-42963D02*
X61328Y-42228D01*
X61328Y-42228D02*
X61325Y-42225D01*
X65345Y-44331D02*
X65345Y-45970D01*
X65345Y-45970D02*
X65350Y-45975D01*
X62272Y-43987D02*
X62272Y-45878D01*
X62200Y-45950D02*
X61775Y-45950D01*
X62272Y-45878D02*
X62200Y-45950D01*
X61328Y-43987D02*
X61328Y-45878D01*
X61400Y-45950D02*
X61775Y-45950D01*
X61328Y-45878D02*
X61400Y-45950D01*
X61775Y-45950D02*
X61775Y-45000D01*
X61957Y-44818D02*
X61957Y-43987D01*
X61775Y-45000D02*
X61957Y-44818D01*
X59125Y-38000D02*
X58000Y-38000D01*
X59125Y-38000D02*
X59225Y-38100D01*
X59225Y-38475D02*
X59225Y-38100D01*
X57000Y-37000D02*
X56500Y-37000D01*
X58000Y-38000D02*
X57000Y-37000D01*
X65025Y-35142D02*
X63208Y-35142D01*
X59875Y-38475D02*
X59225Y-38475D01*
X63208Y-35142D02*
X59875Y-38475D01*
X56550Y-38475D02*
X59225Y-38475D01*
X65542Y-44331D02*
X65542Y-44917D01*
X68250Y-37825D02*
X64125Y-37825D01*
X68925Y-38500D02*
X68250Y-37825D01*
X68925Y-42450D02*
X68925Y-38500D01*
X68950Y-42475D02*
X68925Y-42450D01*
X65725Y-45100D02*
X68575Y-45100D01*
X65542Y-44917D02*
X65725Y-45100D01*
X62587Y-42963D02*
X62587Y-42463D01*
X62587Y-42463D02*
X62725Y-42325D01*
X62272Y-42322D02*
X62272Y-42963D01*
X62250Y-42300D02*
X62272Y-42322D01*
X66800Y-41975D02*
X65575Y-41975D01*
X65345Y-42205D02*
X65345Y-42619D01*
X65575Y-41975D02*
X65345Y-42205D01*
X64350Y-45975D02*
X64350Y-45800D01*
X65148Y-45002D02*
X65148Y-44331D01*
X64350Y-45800D02*
X65148Y-45002D01*
X47500Y-46000D02*
X47250Y-46000D01*
X46500Y-46750D02*
X46500Y-47750D01*
X47250Y-46000D02*
X46500Y-46750D01*
X56000Y-41000D02*
X56000Y-41250D01*
X55650Y-41600D02*
X54580Y-41600D01*
X56000Y-41250D02*
X55650Y-41600D01*
G54D26*
X56250Y-40250D02*
X57450Y-40250D01*
G54D27*
X55000Y-43250D02*
X56500Y-41750D01*
X56250Y-40250D02*
X55500Y-40250D01*
X55500Y-40250D02*
X55250Y-40500D01*
X55250Y-40500D02*
X55250Y-41000D01*
X55250Y-41000D02*
X55050Y-41200D01*
X54580Y-41200D02*
X55050Y-41200D01*
X55000Y-43250D02*
X55000Y-43500D01*
G54D26*
X57300Y-41750D02*
X56500Y-41750D01*
X57950Y-41100D02*
X57300Y-41750D01*
X57950Y-40750D02*
X57950Y-41100D01*
X57450Y-40250D02*
X57950Y-40750D01*
G54D27*
X54000Y-43500D02*
X54000Y-43000D01*
X54280Y-42720D02*
X54280Y-42080D01*
X54000Y-43000D02*
X54280Y-42720D01*
X47142Y-41747D02*
X44858Y-41747D01*
X44858Y-41747D02*
X44250Y-42355D01*
X44250Y-42355D02*
X44250Y-48000D01*
X44250Y-48000D02*
X45000Y-48750D01*
X45000Y-48750D02*
X55500Y-48750D01*
X55500Y-48750D02*
X56250Y-48000D01*
X46975Y-37500D02*
X45775Y-37500D01*
X46975Y-36250D02*
X45775Y-36250D01*
X46975Y-35000D02*
X45775Y-35000D01*
X46975Y-33750D02*
X45775Y-33750D01*
X46975Y-32500D02*
X45775Y-32500D01*
X64109Y-33400D02*
X59800Y-33400D01*
X59800Y-33400D02*
X59225Y-33975D01*
X56550Y-35475D02*
X57025Y-35475D01*
X59225Y-34325D02*
X59225Y-33975D01*
X59100Y-34450D02*
X59225Y-34325D01*
X58050Y-34450D02*
X59100Y-34450D01*
X57025Y-35475D02*
X58050Y-34450D01*
G54D26*
X49975Y-37500D02*
X49975Y-37025D01*
X59200Y-36100D02*
X60250Y-35050D01*
X55150Y-36100D02*
X59200Y-36100D01*
X54800Y-35750D02*
X55150Y-36100D01*
X51250Y-35750D02*
X54800Y-35750D01*
X49975Y-37025D02*
X51250Y-35750D01*
X60350Y-43375D02*
X60350Y-43400D01*
X60350Y-43400D02*
X60275Y-43475D01*
X59700Y-43450D02*
X59900Y-43450D01*
X59900Y-43450D02*
X59925Y-43475D01*
X59925Y-43475D02*
X60275Y-43475D01*
X52450Y-41200D02*
X52300Y-41350D01*
X52300Y-41350D02*
X52300Y-43250D01*
X52300Y-43250D02*
X53300Y-44250D01*
X53300Y-44250D02*
X55500Y-44250D01*
X55500Y-44250D02*
X56300Y-43450D01*
X53440Y-41200D02*
X52450Y-41200D01*
X60275Y-43475D02*
X60450Y-43475D01*
X60894Y-43475D02*
X60450Y-43475D01*
X60350Y-43350D02*
X60350Y-42025D01*
X60350Y-42025D02*
X60600Y-41775D01*
X60600Y-41775D02*
X64475Y-41775D01*
X64475Y-41775D02*
X64750Y-42050D01*
X60350Y-43375D02*
X60350Y-43350D01*
X60450Y-43475D02*
X60350Y-43375D01*
G54D27*
X64755Y-42619D02*
X64755Y-42055D01*
X64755Y-42055D02*
X64750Y-42050D01*
X68300Y-46625D02*
X68300Y-47975D01*
G54D26*
X60700Y-42150D02*
X60750Y-42150D01*
X53720Y-40900D02*
X53720Y-40180D01*
X58750Y-42150D02*
X58900Y-42150D01*
X58200Y-41600D02*
X58750Y-42150D01*
X58200Y-40750D02*
X58200Y-41600D01*
X57150Y-39700D02*
X58200Y-40750D01*
X54200Y-39700D02*
X57150Y-39700D01*
X53720Y-40180D02*
X54200Y-39700D01*
X60838Y-42062D02*
X61013Y-42062D01*
X60750Y-42150D02*
X60838Y-42062D01*
G54D27*
X61013Y-42963D02*
X61013Y-42100D01*
X61013Y-42100D02*
X61013Y-42062D01*
X63700Y-41950D02*
X63925Y-42175D01*
X61125Y-41950D02*
X63700Y-41950D01*
X61013Y-42062D02*
X61125Y-41950D01*
X64558Y-42619D02*
X64558Y-42308D01*
X64000Y-46625D02*
X67300Y-46625D01*
X63350Y-45975D02*
X64000Y-46625D01*
X63350Y-42750D02*
X63350Y-45975D01*
X63925Y-42175D02*
X63350Y-42750D01*
X64425Y-42175D02*
X63925Y-42175D01*
X64558Y-42308D02*
X64425Y-42175D01*
X67300Y-46625D02*
X67300Y-47975D01*
G54D26*
X50250Y-46750D02*
X49500Y-46000D01*
X54300Y-46750D02*
X50250Y-46750D01*
X54350Y-46800D02*
X54300Y-46750D01*
G54D27*
X49500Y-46000D02*
X49000Y-46000D01*
X48500Y-46500D02*
X48500Y-47750D01*
X49000Y-46000D02*
X48500Y-46500D01*
X67300Y-29325D02*
X65925Y-30700D01*
X65925Y-30700D02*
X52575Y-30700D01*
X67300Y-29325D02*
X67300Y-28975D01*
X68300Y-28975D02*
X68300Y-29700D01*
X67000Y-31000D02*
X54250Y-31000D01*
X68300Y-29700D02*
X67000Y-31000D01*
M02*
