G04 (created by PCBNEW (2013-07-07 BZR 4022)-stable) date 12/28/2014 6:13:33 PM*
%MOIN*%
G04 Gerber Fmt 3.4, Leading zero omitted, Abs format*
%FSLAX34Y34*%
G01*
G70*
G90*
G04 APERTURE LIST*
%ADD10C,0.00590551*%
%ADD11C,0.055*%
%ADD12O,0.06X0.1*%
%ADD13R,0.08X0.08*%
%ADD14C,0.08*%
G04 APERTURE END LIST*
G54D10*
G54D11*
X50550Y-43225D03*
X50550Y-46225D03*
X50550Y-30225D03*
X50550Y-33225D03*
X46550Y-29475D03*
X49550Y-29475D03*
X46550Y-34725D03*
X49550Y-34725D03*
X50550Y-35475D03*
X50550Y-38475D03*
X62225Y-33975D03*
X59225Y-33975D03*
X68075Y-36025D03*
X68075Y-33025D03*
X62225Y-38475D03*
X59225Y-38475D03*
X67300Y-36975D03*
X64300Y-36975D03*
X51800Y-43225D03*
X51800Y-46225D03*
X49300Y-43225D03*
X49300Y-46225D03*
X48050Y-43225D03*
X48050Y-46225D03*
X46800Y-43225D03*
X46800Y-46225D03*
X67300Y-43625D03*
X67300Y-46625D03*
X68300Y-43625D03*
X68300Y-46625D03*
X64350Y-45975D03*
X65350Y-45975D03*
X66800Y-41975D03*
X67800Y-41975D03*
X58025Y-43975D03*
X58025Y-42975D03*
X60775Y-45950D03*
X61775Y-45950D03*
G54D12*
X68300Y-47975D03*
X67300Y-47975D03*
X66300Y-47975D03*
X63300Y-47975D03*
X64300Y-47975D03*
X65300Y-47975D03*
X61300Y-47975D03*
X60300Y-47975D03*
X59300Y-47975D03*
X57300Y-47975D03*
X56300Y-47975D03*
X68300Y-28975D03*
X67300Y-28975D03*
X66300Y-28975D03*
X65300Y-28975D03*
X64300Y-28975D03*
X63300Y-28975D03*
X62300Y-28975D03*
X61300Y-28975D03*
X59700Y-28975D03*
X58700Y-28975D03*
X57700Y-28975D03*
X56700Y-28975D03*
X55700Y-28975D03*
X54700Y-28975D03*
X53700Y-28975D03*
X52700Y-28975D03*
X58300Y-47975D03*
G54D13*
X44550Y-37725D03*
G54D14*
X44550Y-36725D03*
X44550Y-35725D03*
X44550Y-34725D03*
G54D13*
X44550Y-32475D03*
G54D14*
X44550Y-31475D03*
X44550Y-30475D03*
X44550Y-29475D03*
M02*
