G04 (created by PCBNEW (2013-07-07 BZR 4022)-stable) date 1/23/2017 8:00:42 PM*
%MOIN*%
G04 Gerber Fmt 3.4, Leading zero omitted, Abs format*
%FSLAX34Y34*%
G01*
G70*
G90*
G04 APERTURE LIST*
%ADD10C,0.00590551*%
%ADD11C,0.012*%
%ADD12C,0.006*%
%ADD13C,0.01*%
%ADD14C,0.005*%
%ADD15C,0.008*%
%ADD16C,0.0031*%
%ADD17C,0.015*%
%ADD18C,0.007*%
%ADD19C,0.0039*%
%ADD20C,0.0045*%
%ADD21C,0.0047*%
G04 APERTURE END LIST*
G54D10*
G54D11*
X55520Y-40500D02*
X57500Y-40500D01*
X57500Y-40500D02*
X57500Y-41500D01*
X57500Y-41500D02*
X55500Y-41500D01*
X55500Y-41500D02*
X55500Y-40500D01*
X55500Y-40750D02*
X55750Y-40500D01*
X53520Y-43000D02*
X55500Y-43000D01*
X55500Y-43000D02*
X55500Y-44000D01*
X55500Y-44000D02*
X53500Y-44000D01*
X53500Y-44000D02*
X53500Y-43000D01*
X53500Y-43250D02*
X53750Y-43000D01*
G54D12*
X53419Y-41126D02*
X53626Y-40919D01*
X54591Y-40919D02*
X54591Y-41116D01*
X54591Y-42091D02*
X54591Y-41884D01*
X53409Y-40909D02*
X53409Y-41126D01*
X53409Y-40909D02*
X53626Y-40909D01*
X53409Y-42100D02*
X53626Y-42100D01*
X53409Y-42091D02*
X53409Y-41884D01*
X54591Y-42091D02*
X54374Y-42091D01*
X54591Y-40919D02*
X54374Y-40919D01*
G54D10*
X50300Y-27950D02*
X45700Y-27950D01*
X45700Y-27950D02*
X45700Y-30550D01*
X45700Y-30550D02*
X50300Y-30550D01*
X50300Y-30550D02*
X50300Y-27950D01*
G54D13*
X46000Y-28750D02*
X50000Y-28750D01*
X46000Y-29750D02*
X50000Y-29750D01*
X50000Y-29750D02*
X50000Y-28750D01*
X46000Y-28750D02*
X46000Y-29750D01*
G54D10*
X50300Y-46450D02*
X45700Y-46450D01*
X45700Y-46450D02*
X45700Y-49050D01*
X45700Y-49050D02*
X50300Y-49050D01*
X50300Y-49050D02*
X50300Y-46450D01*
G54D13*
X46000Y-47250D02*
X50000Y-47250D01*
X46000Y-48250D02*
X50000Y-48250D01*
X50000Y-48250D02*
X50000Y-47250D01*
X46000Y-47250D02*
X46000Y-48250D01*
G54D14*
X64800Y-33025D02*
X65060Y-33025D01*
X64800Y-33775D02*
X65060Y-33775D01*
X64250Y-33400D02*
X63990Y-33400D01*
X64250Y-33990D02*
X64250Y-32810D01*
X64250Y-32810D02*
X64800Y-32810D01*
X64800Y-32810D02*
X64800Y-33990D01*
X64800Y-33990D02*
X64250Y-33990D01*
G54D15*
X49975Y-36250D02*
X49775Y-36250D01*
X46975Y-36250D02*
X47175Y-36250D01*
X47175Y-36250D02*
X47175Y-36650D01*
X47175Y-36650D02*
X49775Y-36650D01*
X49775Y-36650D02*
X49775Y-35850D01*
X49775Y-35850D02*
X47175Y-35850D01*
X47175Y-35850D02*
X47175Y-36250D01*
X49775Y-36450D02*
X49575Y-36650D01*
X51500Y-36500D02*
X51500Y-36700D01*
X51500Y-39500D02*
X51500Y-39300D01*
X51500Y-39300D02*
X51900Y-39300D01*
X51900Y-39300D02*
X51900Y-36700D01*
X51900Y-36700D02*
X51100Y-36700D01*
X51100Y-36700D02*
X51100Y-39300D01*
X51100Y-39300D02*
X51500Y-39300D01*
X51700Y-36700D02*
X51900Y-36900D01*
X51500Y-32000D02*
X51500Y-32200D01*
X51500Y-35000D02*
X51500Y-34800D01*
X51500Y-34800D02*
X51900Y-34800D01*
X51900Y-34800D02*
X51900Y-32200D01*
X51900Y-32200D02*
X51100Y-32200D01*
X51100Y-32200D02*
X51100Y-34800D01*
X51100Y-34800D02*
X51500Y-34800D01*
X51700Y-32200D02*
X51900Y-32400D01*
X47500Y-46000D02*
X47500Y-45800D01*
X47500Y-43000D02*
X47500Y-43200D01*
X47500Y-43200D02*
X47100Y-43200D01*
X47100Y-43200D02*
X47100Y-45800D01*
X47100Y-45800D02*
X47900Y-45800D01*
X47900Y-45800D02*
X47900Y-43200D01*
X47900Y-43200D02*
X47500Y-43200D01*
X47300Y-45800D02*
X47100Y-45600D01*
X49500Y-43000D02*
X49500Y-43200D01*
X49500Y-46000D02*
X49500Y-45800D01*
X49500Y-45800D02*
X49900Y-45800D01*
X49900Y-45800D02*
X49900Y-43200D01*
X49900Y-43200D02*
X49100Y-43200D01*
X49100Y-43200D02*
X49100Y-45800D01*
X49100Y-45800D02*
X49500Y-45800D01*
X49700Y-43200D02*
X49900Y-43400D01*
X62225Y-33975D02*
X62025Y-33975D01*
X59225Y-33975D02*
X59425Y-33975D01*
X59425Y-33975D02*
X59425Y-34375D01*
X59425Y-34375D02*
X62025Y-34375D01*
X62025Y-34375D02*
X62025Y-33575D01*
X62025Y-33575D02*
X59425Y-33575D01*
X59425Y-33575D02*
X59425Y-33975D01*
X62025Y-34175D02*
X61825Y-34375D01*
X68075Y-36025D02*
X68075Y-35825D01*
X68075Y-33025D02*
X68075Y-33225D01*
X68075Y-33225D02*
X67675Y-33225D01*
X67675Y-33225D02*
X67675Y-35825D01*
X67675Y-35825D02*
X68475Y-35825D01*
X68475Y-35825D02*
X68475Y-33225D01*
X68475Y-33225D02*
X68075Y-33225D01*
X67875Y-35825D02*
X67675Y-35625D01*
X62225Y-38475D02*
X62025Y-38475D01*
X59225Y-38475D02*
X59425Y-38475D01*
X59425Y-38475D02*
X59425Y-38875D01*
X59425Y-38875D02*
X62025Y-38875D01*
X62025Y-38875D02*
X62025Y-38075D01*
X62025Y-38075D02*
X59425Y-38075D01*
X59425Y-38075D02*
X59425Y-38475D01*
X62025Y-38675D02*
X61825Y-38875D01*
X67300Y-36975D02*
X67100Y-36975D01*
X64300Y-36975D02*
X64500Y-36975D01*
X64500Y-36975D02*
X64500Y-37375D01*
X64500Y-37375D02*
X67100Y-37375D01*
X67100Y-37375D02*
X67100Y-36575D01*
X67100Y-36575D02*
X64500Y-36575D01*
X64500Y-36575D02*
X64500Y-36975D01*
X67100Y-37175D02*
X66900Y-37375D01*
X49975Y-37500D02*
X49775Y-37500D01*
X46975Y-37500D02*
X47175Y-37500D01*
X47175Y-37500D02*
X47175Y-37900D01*
X47175Y-37900D02*
X49775Y-37900D01*
X49775Y-37900D02*
X49775Y-37100D01*
X49775Y-37100D02*
X47175Y-37100D01*
X47175Y-37100D02*
X47175Y-37500D01*
X49775Y-37700D02*
X49575Y-37900D01*
X49975Y-35000D02*
X49775Y-35000D01*
X46975Y-35000D02*
X47175Y-35000D01*
X47175Y-35000D02*
X47175Y-35400D01*
X47175Y-35400D02*
X49775Y-35400D01*
X49775Y-35400D02*
X49775Y-34600D01*
X49775Y-34600D02*
X47175Y-34600D01*
X47175Y-34600D02*
X47175Y-35000D01*
X49775Y-35200D02*
X49575Y-35400D01*
X49975Y-33750D02*
X49775Y-33750D01*
X46975Y-33750D02*
X47175Y-33750D01*
X47175Y-33750D02*
X47175Y-34150D01*
X47175Y-34150D02*
X49775Y-34150D01*
X49775Y-34150D02*
X49775Y-33350D01*
X49775Y-33350D02*
X47175Y-33350D01*
X47175Y-33350D02*
X47175Y-33750D01*
X49775Y-33950D02*
X49575Y-34150D01*
X49975Y-32500D02*
X49775Y-32500D01*
X46975Y-32500D02*
X47175Y-32500D01*
X47175Y-32500D02*
X47175Y-32900D01*
X47175Y-32900D02*
X49775Y-32900D01*
X49775Y-32900D02*
X49775Y-32100D01*
X49775Y-32100D02*
X47175Y-32100D01*
X47175Y-32100D02*
X47175Y-32500D01*
X49775Y-32700D02*
X49575Y-32900D01*
X67300Y-43625D02*
X67300Y-43825D01*
X67300Y-46625D02*
X67300Y-46425D01*
X67300Y-46425D02*
X67700Y-46425D01*
X67700Y-46425D02*
X67700Y-43825D01*
X67700Y-43825D02*
X66900Y-43825D01*
X66900Y-43825D02*
X66900Y-46425D01*
X66900Y-46425D02*
X67300Y-46425D01*
X67500Y-43825D02*
X67700Y-44025D01*
X68300Y-43625D02*
X68300Y-43825D01*
X68300Y-46625D02*
X68300Y-46425D01*
X68300Y-46425D02*
X68700Y-46425D01*
X68700Y-46425D02*
X68700Y-43825D01*
X68700Y-43825D02*
X67900Y-43825D01*
X67900Y-43825D02*
X67900Y-46425D01*
X67900Y-46425D02*
X68300Y-46425D01*
X68500Y-43825D02*
X68700Y-44025D01*
G54D11*
X63870Y-45475D02*
X65850Y-45475D01*
X65850Y-45475D02*
X65850Y-46475D01*
X65850Y-46475D02*
X63850Y-46475D01*
X63850Y-46475D02*
X63850Y-45475D01*
X63850Y-45725D02*
X64100Y-45475D01*
X66320Y-41475D02*
X68300Y-41475D01*
X68300Y-41475D02*
X68300Y-42475D01*
X68300Y-42475D02*
X66300Y-42475D01*
X66300Y-42475D02*
X66300Y-41475D01*
X66300Y-41725D02*
X66550Y-41475D01*
X57525Y-44455D02*
X57525Y-42475D01*
X57525Y-42475D02*
X58525Y-42475D01*
X58525Y-42475D02*
X58525Y-44475D01*
X58525Y-44475D02*
X57525Y-44475D01*
X57775Y-44475D02*
X57525Y-44225D01*
X60295Y-45450D02*
X62275Y-45450D01*
X62275Y-45450D02*
X62275Y-46450D01*
X62275Y-46450D02*
X60275Y-46450D01*
X60275Y-46450D02*
X60275Y-45450D01*
X60275Y-45700D02*
X60525Y-45450D01*
G54D14*
X45950Y-35250D02*
X45050Y-35250D01*
X45050Y-35250D02*
X45050Y-34750D01*
X45050Y-34750D02*
X45950Y-34750D01*
X45950Y-34750D02*
X45950Y-35250D01*
X45950Y-34000D02*
X45050Y-34000D01*
X45050Y-34000D02*
X45050Y-33500D01*
X45050Y-33500D02*
X45950Y-33500D01*
X45950Y-33500D02*
X45950Y-34000D01*
X45950Y-32750D02*
X45050Y-32750D01*
X45050Y-32750D02*
X45050Y-32250D01*
X45050Y-32250D02*
X45950Y-32250D01*
X45950Y-32250D02*
X45950Y-32750D01*
X45950Y-37750D02*
X45050Y-37750D01*
X45050Y-37750D02*
X45050Y-37250D01*
X45050Y-37250D02*
X45950Y-37250D01*
X45950Y-37250D02*
X45950Y-37750D01*
X45950Y-36500D02*
X45050Y-36500D01*
X45050Y-36500D02*
X45050Y-36000D01*
X45050Y-36000D02*
X45950Y-36000D01*
X45950Y-36000D02*
X45950Y-36500D01*
G54D16*
X65925Y-35437D02*
G75*
G03X65925Y-35437I-62J0D01*
G74*
G01*
X64900Y-35775D02*
X64900Y-35375D01*
X65925Y-35775D02*
X65925Y-35375D01*
X64900Y-35375D02*
X65925Y-35375D01*
X65925Y-35775D02*
X64900Y-35775D01*
G54D13*
X60558Y-44341D02*
G75*
G03X60558Y-44341I-175J0D01*
G74*
G01*
X60776Y-44184D02*
X60540Y-44184D01*
X60540Y-44184D02*
X60540Y-43711D01*
X63060Y-43711D02*
X63060Y-44184D01*
X63060Y-44184D02*
X62824Y-44184D01*
X62824Y-42766D02*
X63060Y-42766D01*
X63060Y-42766D02*
X63060Y-43239D01*
X60540Y-43239D02*
X60540Y-42766D01*
X60540Y-42766D02*
X60776Y-42766D01*
G54D17*
X69250Y-33000D02*
X69250Y-28500D01*
X69250Y-28500D02*
X68750Y-28000D01*
X68750Y-28000D02*
X43250Y-28000D01*
X69250Y-49000D02*
X43250Y-49000D01*
X43250Y-49000D02*
X43250Y-28000D01*
X69250Y-33000D02*
X70250Y-34000D01*
X70250Y-34000D02*
X70250Y-47000D01*
X70250Y-47000D02*
X69250Y-48000D01*
X69250Y-48000D02*
X69250Y-49000D01*
G54D13*
X64184Y-42845D02*
X64184Y-42609D01*
X64184Y-42609D02*
X64420Y-42609D01*
X64420Y-44341D02*
X64184Y-44341D01*
X64184Y-44341D02*
X64184Y-44105D01*
X65916Y-44105D02*
X65916Y-44341D01*
X65916Y-44341D02*
X65680Y-44341D01*
X65680Y-42609D02*
X65916Y-42609D01*
X65916Y-42609D02*
X65916Y-42845D01*
X64211Y-42501D02*
G75*
G03X64211Y-42501I-154J0D01*
G74*
G01*
G54D17*
X46433Y-41000D02*
G75*
G03X46433Y-41000I-433J0D01*
G74*
G01*
X47033Y-39967D02*
X47033Y-42033D01*
X47033Y-42033D02*
X44967Y-42033D01*
X44967Y-42033D02*
X44967Y-39967D01*
X44967Y-39967D02*
X47033Y-39967D01*
X56747Y-38500D02*
G75*
G03X56747Y-38500I-247J0D01*
G74*
G01*
X55747Y-38500D02*
G75*
G03X55747Y-38500I-247J0D01*
G74*
G01*
X56747Y-37000D02*
G75*
G03X56747Y-37000I-247J0D01*
G74*
G01*
X55747Y-37000D02*
G75*
G03X55747Y-37000I-247J0D01*
G74*
G01*
X56747Y-35500D02*
G75*
G03X56747Y-35500I-247J0D01*
G74*
G01*
X55747Y-35500D02*
G75*
G03X55747Y-35500I-247J0D01*
G74*
G01*
X56747Y-34000D02*
G75*
G03X56747Y-34000I-247J0D01*
G74*
G01*
X55747Y-34000D02*
G75*
G03X55747Y-34000I-247J0D01*
G74*
G01*
G54D18*
X58514Y-31175D02*
X58514Y-40775D01*
X58514Y-40775D02*
X66500Y-40775D01*
X66500Y-40775D02*
X69383Y-37891D01*
X69383Y-37891D02*
X69383Y-34059D01*
X69383Y-34059D02*
X66500Y-31175D01*
X66500Y-31175D02*
X58514Y-31175D01*
G54D14*
X58514Y-31175D02*
X58514Y-40775D01*
X58514Y-40775D02*
X66500Y-40775D01*
X66500Y-40775D02*
X69383Y-37891D01*
X69383Y-37891D02*
X69383Y-34059D01*
X69383Y-34059D02*
X66500Y-31175D01*
X66500Y-31175D02*
X58514Y-31175D01*
G54D15*
X56533Y-40223D02*
X56514Y-40242D01*
X56457Y-40261D01*
X56419Y-40261D01*
X56361Y-40242D01*
X56323Y-40204D01*
X56304Y-40166D01*
X56285Y-40090D01*
X56285Y-40033D01*
X56304Y-39957D01*
X56323Y-39919D01*
X56361Y-39880D01*
X56419Y-39861D01*
X56457Y-39861D01*
X56514Y-39880D01*
X56533Y-39900D01*
X56876Y-39861D02*
X56800Y-39861D01*
X56761Y-39880D01*
X56742Y-39900D01*
X56704Y-39957D01*
X56685Y-40033D01*
X56685Y-40185D01*
X56704Y-40223D01*
X56723Y-40242D01*
X56761Y-40261D01*
X56838Y-40261D01*
X56876Y-40242D01*
X56895Y-40223D01*
X56914Y-40185D01*
X56914Y-40090D01*
X56895Y-40052D01*
X56876Y-40033D01*
X56838Y-40014D01*
X56761Y-40014D01*
X56723Y-40033D01*
X56704Y-40052D01*
X56685Y-40090D01*
X54533Y-42723D02*
X54514Y-42742D01*
X54457Y-42761D01*
X54419Y-42761D01*
X54361Y-42742D01*
X54323Y-42704D01*
X54304Y-42666D01*
X54285Y-42590D01*
X54285Y-42533D01*
X54304Y-42457D01*
X54323Y-42419D01*
X54361Y-42380D01*
X54419Y-42361D01*
X54457Y-42361D01*
X54514Y-42380D01*
X54533Y-42400D01*
X54895Y-42361D02*
X54704Y-42361D01*
X54685Y-42552D01*
X54704Y-42533D01*
X54742Y-42514D01*
X54838Y-42514D01*
X54876Y-42533D01*
X54895Y-42552D01*
X54914Y-42590D01*
X54914Y-42685D01*
X54895Y-42723D01*
X54876Y-42742D01*
X54838Y-42761D01*
X54742Y-42761D01*
X54704Y-42742D01*
X54685Y-42723D01*
X47704Y-30411D02*
X47704Y-30011D01*
X47857Y-30011D01*
X47895Y-30030D01*
X47914Y-30050D01*
X47933Y-30088D01*
X47933Y-30145D01*
X47914Y-30183D01*
X47895Y-30202D01*
X47857Y-30221D01*
X47704Y-30221D01*
X48085Y-30050D02*
X48104Y-30030D01*
X48142Y-30011D01*
X48238Y-30011D01*
X48276Y-30030D01*
X48295Y-30050D01*
X48314Y-30088D01*
X48314Y-30126D01*
X48295Y-30183D01*
X48066Y-30411D01*
X48314Y-30411D01*
X47704Y-48911D02*
X47704Y-48511D01*
X47857Y-48511D01*
X47895Y-48530D01*
X47914Y-48550D01*
X47933Y-48588D01*
X47933Y-48645D01*
X47914Y-48683D01*
X47895Y-48702D01*
X47857Y-48721D01*
X47704Y-48721D01*
X48314Y-48911D02*
X48085Y-48911D01*
X48200Y-48911D02*
X48200Y-48511D01*
X48161Y-48569D01*
X48123Y-48607D01*
X48085Y-48626D01*
G54D19*
X64623Y-33418D02*
X64614Y-33437D01*
X64595Y-33456D01*
X64567Y-33484D01*
X64557Y-33503D01*
X64557Y-33521D01*
X64604Y-33512D02*
X64595Y-33531D01*
X64576Y-33550D01*
X64539Y-33559D01*
X64473Y-33559D01*
X64435Y-33550D01*
X64417Y-33531D01*
X64407Y-33512D01*
X64407Y-33475D01*
X64417Y-33456D01*
X64435Y-33437D01*
X64473Y-33428D01*
X64539Y-33428D01*
X64576Y-33437D01*
X64595Y-33456D01*
X64604Y-33475D01*
X64604Y-33512D01*
X64426Y-33353D02*
X64417Y-33343D01*
X64407Y-33324D01*
X64407Y-33278D01*
X64417Y-33259D01*
X64426Y-33249D01*
X64445Y-33240D01*
X64464Y-33240D01*
X64492Y-33249D01*
X64604Y-33362D01*
X64604Y-33240D01*
G54D15*
X47951Y-36108D02*
X47903Y-36082D01*
X47879Y-36055D01*
X47855Y-36003D01*
X47855Y-35977D01*
X47879Y-35925D01*
X47903Y-35898D01*
X47951Y-35872D01*
X48046Y-35872D01*
X48094Y-35898D01*
X48117Y-35925D01*
X48141Y-35977D01*
X48141Y-36003D01*
X48117Y-36055D01*
X48094Y-36082D01*
X48046Y-36108D01*
X47951Y-36108D01*
X47903Y-36134D01*
X47879Y-36160D01*
X47855Y-36213D01*
X47855Y-36317D01*
X47879Y-36370D01*
X47903Y-36396D01*
X47951Y-36422D01*
X48046Y-36422D01*
X48094Y-36396D01*
X48117Y-36370D01*
X48141Y-36317D01*
X48141Y-36213D01*
X48117Y-36160D01*
X48094Y-36134D01*
X48046Y-36108D01*
X48332Y-35925D02*
X48355Y-35898D01*
X48403Y-35872D01*
X48522Y-35872D01*
X48570Y-35898D01*
X48594Y-35925D01*
X48617Y-35977D01*
X48617Y-36029D01*
X48594Y-36108D01*
X48308Y-36422D01*
X48617Y-36422D01*
X48927Y-35872D02*
X48975Y-35872D01*
X49022Y-35898D01*
X49046Y-35925D01*
X49070Y-35977D01*
X49094Y-36082D01*
X49094Y-36213D01*
X49070Y-36317D01*
X49046Y-36370D01*
X49022Y-36396D01*
X48975Y-36422D01*
X48927Y-36422D01*
X48879Y-36396D01*
X48855Y-36370D01*
X48832Y-36317D01*
X48808Y-36213D01*
X48808Y-36082D01*
X48832Y-35977D01*
X48855Y-35925D01*
X48879Y-35898D01*
X48927Y-35872D01*
X51122Y-38440D02*
X51122Y-38678D01*
X51384Y-38702D01*
X51358Y-38678D01*
X51332Y-38630D01*
X51332Y-38511D01*
X51358Y-38464D01*
X51384Y-38440D01*
X51436Y-38416D01*
X51567Y-38416D01*
X51620Y-38440D01*
X51646Y-38464D01*
X51672Y-38511D01*
X51672Y-38630D01*
X51646Y-38678D01*
X51620Y-38702D01*
X51620Y-38202D02*
X51646Y-38178D01*
X51672Y-38202D01*
X51646Y-38226D01*
X51620Y-38202D01*
X51672Y-38202D01*
X51122Y-37749D02*
X51122Y-37845D01*
X51148Y-37892D01*
X51175Y-37916D01*
X51253Y-37964D01*
X51358Y-37988D01*
X51567Y-37988D01*
X51620Y-37964D01*
X51646Y-37940D01*
X51672Y-37892D01*
X51672Y-37797D01*
X51646Y-37749D01*
X51620Y-37726D01*
X51567Y-37702D01*
X51436Y-37702D01*
X51384Y-37726D01*
X51358Y-37749D01*
X51332Y-37797D01*
X51332Y-37892D01*
X51358Y-37940D01*
X51384Y-37964D01*
X51436Y-37988D01*
X51672Y-37488D02*
X51122Y-37488D01*
X51463Y-37440D02*
X51672Y-37297D01*
X51305Y-37297D02*
X51515Y-37488D01*
X51175Y-34119D02*
X51148Y-34095D01*
X51122Y-34047D01*
X51122Y-33928D01*
X51148Y-33880D01*
X51175Y-33857D01*
X51227Y-33833D01*
X51279Y-33833D01*
X51358Y-33857D01*
X51672Y-34142D01*
X51672Y-33833D01*
X51122Y-33523D02*
X51122Y-33476D01*
X51148Y-33428D01*
X51175Y-33404D01*
X51227Y-33380D01*
X51332Y-33357D01*
X51463Y-33357D01*
X51567Y-33380D01*
X51620Y-33404D01*
X51646Y-33428D01*
X51672Y-33476D01*
X51672Y-33523D01*
X51646Y-33571D01*
X51620Y-33595D01*
X51567Y-33619D01*
X51463Y-33642D01*
X51332Y-33642D01*
X51227Y-33619D01*
X51175Y-33595D01*
X51148Y-33571D01*
X51122Y-33523D01*
X51122Y-33047D02*
X51122Y-33000D01*
X51148Y-32952D01*
X51175Y-32928D01*
X51227Y-32904D01*
X51332Y-32880D01*
X51463Y-32880D01*
X51567Y-32904D01*
X51620Y-32928D01*
X51646Y-32952D01*
X51672Y-33000D01*
X51672Y-33047D01*
X51646Y-33095D01*
X51620Y-33119D01*
X51567Y-33142D01*
X51463Y-33166D01*
X51332Y-33166D01*
X51227Y-33142D01*
X51175Y-33119D01*
X51148Y-33095D01*
X51122Y-33047D01*
X47275Y-45119D02*
X47248Y-45095D01*
X47222Y-45047D01*
X47222Y-44928D01*
X47248Y-44880D01*
X47275Y-44857D01*
X47327Y-44833D01*
X47379Y-44833D01*
X47458Y-44857D01*
X47772Y-45142D01*
X47772Y-44833D01*
X47222Y-44523D02*
X47222Y-44476D01*
X47248Y-44428D01*
X47275Y-44404D01*
X47327Y-44380D01*
X47432Y-44357D01*
X47563Y-44357D01*
X47667Y-44380D01*
X47720Y-44404D01*
X47746Y-44428D01*
X47772Y-44476D01*
X47772Y-44523D01*
X47746Y-44571D01*
X47720Y-44595D01*
X47667Y-44619D01*
X47563Y-44642D01*
X47432Y-44642D01*
X47327Y-44619D01*
X47275Y-44595D01*
X47248Y-44571D01*
X47222Y-44523D01*
X47222Y-44047D02*
X47222Y-44000D01*
X47248Y-43952D01*
X47275Y-43928D01*
X47327Y-43904D01*
X47432Y-43880D01*
X47563Y-43880D01*
X47667Y-43904D01*
X47720Y-43928D01*
X47746Y-43952D01*
X47772Y-44000D01*
X47772Y-44047D01*
X47746Y-44095D01*
X47720Y-44119D01*
X47667Y-44142D01*
X47563Y-44166D01*
X47432Y-44166D01*
X47327Y-44142D01*
X47275Y-44119D01*
X47248Y-44095D01*
X47222Y-44047D01*
X49122Y-44940D02*
X49122Y-45178D01*
X49384Y-45202D01*
X49358Y-45178D01*
X49332Y-45130D01*
X49332Y-45011D01*
X49358Y-44964D01*
X49384Y-44940D01*
X49436Y-44916D01*
X49567Y-44916D01*
X49620Y-44940D01*
X49646Y-44964D01*
X49672Y-45011D01*
X49672Y-45130D01*
X49646Y-45178D01*
X49620Y-45202D01*
X49620Y-44702D02*
X49646Y-44678D01*
X49672Y-44702D01*
X49646Y-44726D01*
X49620Y-44702D01*
X49672Y-44702D01*
X49122Y-44249D02*
X49122Y-44345D01*
X49148Y-44392D01*
X49175Y-44416D01*
X49253Y-44464D01*
X49358Y-44488D01*
X49567Y-44488D01*
X49620Y-44464D01*
X49646Y-44440D01*
X49672Y-44392D01*
X49672Y-44297D01*
X49646Y-44249D01*
X49620Y-44226D01*
X49567Y-44202D01*
X49436Y-44202D01*
X49384Y-44226D01*
X49358Y-44249D01*
X49332Y-44297D01*
X49332Y-44392D01*
X49358Y-44440D01*
X49384Y-44464D01*
X49436Y-44488D01*
X49672Y-43988D02*
X49122Y-43988D01*
X49463Y-43940D02*
X49672Y-43797D01*
X49305Y-43797D02*
X49515Y-43988D01*
X60665Y-34147D02*
X60379Y-34147D01*
X60522Y-34147D02*
X60522Y-33597D01*
X60475Y-33676D01*
X60427Y-33728D01*
X60379Y-33754D01*
X60879Y-34147D02*
X60879Y-33597D01*
X60927Y-33938D02*
X61070Y-34147D01*
X61070Y-33780D02*
X60879Y-33990D01*
X68347Y-34584D02*
X68347Y-34870D01*
X68347Y-34727D02*
X67797Y-34727D01*
X67876Y-34774D01*
X67928Y-34822D01*
X67954Y-34870D01*
X68347Y-34370D02*
X67797Y-34370D01*
X68138Y-34322D02*
X68347Y-34179D01*
X67980Y-34179D02*
X68190Y-34370D01*
X60665Y-38647D02*
X60379Y-38647D01*
X60522Y-38647D02*
X60522Y-38097D01*
X60475Y-38176D01*
X60427Y-38228D01*
X60379Y-38254D01*
X60879Y-38647D02*
X60879Y-38097D01*
X60927Y-38438D02*
X61070Y-38647D01*
X61070Y-38280D02*
X60879Y-38490D01*
X65740Y-37147D02*
X65454Y-37147D01*
X65597Y-37147D02*
X65597Y-36597D01*
X65550Y-36676D01*
X65502Y-36728D01*
X65454Y-36754D01*
X65954Y-37147D02*
X65954Y-36597D01*
X66002Y-36938D02*
X66145Y-37147D01*
X66145Y-36780D02*
X65954Y-36990D01*
X47951Y-37358D02*
X47903Y-37332D01*
X47879Y-37305D01*
X47855Y-37253D01*
X47855Y-37227D01*
X47879Y-37175D01*
X47903Y-37148D01*
X47951Y-37122D01*
X48046Y-37122D01*
X48094Y-37148D01*
X48117Y-37175D01*
X48141Y-37227D01*
X48141Y-37253D01*
X48117Y-37305D01*
X48094Y-37332D01*
X48046Y-37358D01*
X47951Y-37358D01*
X47903Y-37384D01*
X47879Y-37410D01*
X47855Y-37463D01*
X47855Y-37567D01*
X47879Y-37620D01*
X47903Y-37646D01*
X47951Y-37672D01*
X48046Y-37672D01*
X48094Y-37646D01*
X48117Y-37620D01*
X48141Y-37567D01*
X48141Y-37463D01*
X48117Y-37410D01*
X48094Y-37384D01*
X48046Y-37358D01*
X48332Y-37175D02*
X48355Y-37148D01*
X48403Y-37122D01*
X48522Y-37122D01*
X48570Y-37148D01*
X48594Y-37175D01*
X48617Y-37227D01*
X48617Y-37279D01*
X48594Y-37358D01*
X48308Y-37672D01*
X48617Y-37672D01*
X48927Y-37122D02*
X48975Y-37122D01*
X49022Y-37148D01*
X49046Y-37175D01*
X49070Y-37227D01*
X49094Y-37332D01*
X49094Y-37463D01*
X49070Y-37567D01*
X49046Y-37620D01*
X49022Y-37646D01*
X48975Y-37672D01*
X48927Y-37672D01*
X48879Y-37646D01*
X48855Y-37620D01*
X48832Y-37567D01*
X48808Y-37463D01*
X48808Y-37332D01*
X48832Y-37227D01*
X48855Y-37175D01*
X48879Y-37148D01*
X48927Y-37122D01*
X47951Y-34858D02*
X47903Y-34832D01*
X47879Y-34805D01*
X47855Y-34753D01*
X47855Y-34727D01*
X47879Y-34675D01*
X47903Y-34648D01*
X47951Y-34622D01*
X48046Y-34622D01*
X48094Y-34648D01*
X48117Y-34675D01*
X48141Y-34727D01*
X48141Y-34753D01*
X48117Y-34805D01*
X48094Y-34832D01*
X48046Y-34858D01*
X47951Y-34858D01*
X47903Y-34884D01*
X47879Y-34910D01*
X47855Y-34963D01*
X47855Y-35067D01*
X47879Y-35120D01*
X47903Y-35146D01*
X47951Y-35172D01*
X48046Y-35172D01*
X48094Y-35146D01*
X48117Y-35120D01*
X48141Y-35067D01*
X48141Y-34963D01*
X48117Y-34910D01*
X48094Y-34884D01*
X48046Y-34858D01*
X48332Y-34675D02*
X48355Y-34648D01*
X48403Y-34622D01*
X48522Y-34622D01*
X48570Y-34648D01*
X48594Y-34675D01*
X48617Y-34727D01*
X48617Y-34779D01*
X48594Y-34858D01*
X48308Y-35172D01*
X48617Y-35172D01*
X48927Y-34622D02*
X48975Y-34622D01*
X49022Y-34648D01*
X49046Y-34675D01*
X49070Y-34727D01*
X49094Y-34832D01*
X49094Y-34963D01*
X49070Y-35067D01*
X49046Y-35120D01*
X49022Y-35146D01*
X48975Y-35172D01*
X48927Y-35172D01*
X48879Y-35146D01*
X48855Y-35120D01*
X48832Y-35067D01*
X48808Y-34963D01*
X48808Y-34832D01*
X48832Y-34727D01*
X48855Y-34675D01*
X48879Y-34648D01*
X48927Y-34622D01*
X47951Y-33608D02*
X47903Y-33582D01*
X47879Y-33555D01*
X47855Y-33503D01*
X47855Y-33477D01*
X47879Y-33425D01*
X47903Y-33398D01*
X47951Y-33372D01*
X48046Y-33372D01*
X48094Y-33398D01*
X48117Y-33425D01*
X48141Y-33477D01*
X48141Y-33503D01*
X48117Y-33555D01*
X48094Y-33582D01*
X48046Y-33608D01*
X47951Y-33608D01*
X47903Y-33634D01*
X47879Y-33660D01*
X47855Y-33713D01*
X47855Y-33817D01*
X47879Y-33870D01*
X47903Y-33896D01*
X47951Y-33922D01*
X48046Y-33922D01*
X48094Y-33896D01*
X48117Y-33870D01*
X48141Y-33817D01*
X48141Y-33713D01*
X48117Y-33660D01*
X48094Y-33634D01*
X48046Y-33608D01*
X48332Y-33425D02*
X48355Y-33398D01*
X48403Y-33372D01*
X48522Y-33372D01*
X48570Y-33398D01*
X48594Y-33425D01*
X48617Y-33477D01*
X48617Y-33529D01*
X48594Y-33608D01*
X48308Y-33922D01*
X48617Y-33922D01*
X48927Y-33372D02*
X48975Y-33372D01*
X49022Y-33398D01*
X49046Y-33425D01*
X49070Y-33477D01*
X49094Y-33582D01*
X49094Y-33713D01*
X49070Y-33817D01*
X49046Y-33870D01*
X49022Y-33896D01*
X48975Y-33922D01*
X48927Y-33922D01*
X48879Y-33896D01*
X48855Y-33870D01*
X48832Y-33817D01*
X48808Y-33713D01*
X48808Y-33582D01*
X48832Y-33477D01*
X48855Y-33425D01*
X48879Y-33398D01*
X48927Y-33372D01*
X47951Y-32358D02*
X47903Y-32332D01*
X47879Y-32305D01*
X47855Y-32253D01*
X47855Y-32227D01*
X47879Y-32175D01*
X47903Y-32148D01*
X47951Y-32122D01*
X48046Y-32122D01*
X48094Y-32148D01*
X48117Y-32175D01*
X48141Y-32227D01*
X48141Y-32253D01*
X48117Y-32305D01*
X48094Y-32332D01*
X48046Y-32358D01*
X47951Y-32358D01*
X47903Y-32384D01*
X47879Y-32410D01*
X47855Y-32463D01*
X47855Y-32567D01*
X47879Y-32620D01*
X47903Y-32646D01*
X47951Y-32672D01*
X48046Y-32672D01*
X48094Y-32646D01*
X48117Y-32620D01*
X48141Y-32567D01*
X48141Y-32463D01*
X48117Y-32410D01*
X48094Y-32384D01*
X48046Y-32358D01*
X48332Y-32175D02*
X48355Y-32148D01*
X48403Y-32122D01*
X48522Y-32122D01*
X48570Y-32148D01*
X48594Y-32175D01*
X48617Y-32227D01*
X48617Y-32279D01*
X48594Y-32358D01*
X48308Y-32672D01*
X48617Y-32672D01*
X48927Y-32122D02*
X48975Y-32122D01*
X49022Y-32148D01*
X49046Y-32175D01*
X49070Y-32227D01*
X49094Y-32332D01*
X49094Y-32463D01*
X49070Y-32567D01*
X49046Y-32620D01*
X49022Y-32646D01*
X48975Y-32672D01*
X48927Y-32672D01*
X48879Y-32646D01*
X48855Y-32620D01*
X48832Y-32567D01*
X48808Y-32463D01*
X48808Y-32332D01*
X48832Y-32227D01*
X48855Y-32175D01*
X48879Y-32148D01*
X48927Y-32122D01*
X67105Y-45589D02*
X67472Y-45589D01*
X66896Y-45708D02*
X67289Y-45827D01*
X67289Y-45517D01*
X67420Y-45327D02*
X67446Y-45303D01*
X67472Y-45327D01*
X67446Y-45351D01*
X67420Y-45327D01*
X67472Y-45327D01*
X66922Y-45136D02*
X66922Y-44803D01*
X67472Y-45017D01*
X67472Y-44613D02*
X66922Y-44613D01*
X67263Y-44565D02*
X67472Y-44422D01*
X67105Y-44422D02*
X67315Y-44613D01*
X68105Y-45589D02*
X68472Y-45589D01*
X67896Y-45708D02*
X68289Y-45827D01*
X68289Y-45517D01*
X68420Y-45327D02*
X68446Y-45303D01*
X68472Y-45327D01*
X68446Y-45351D01*
X68420Y-45327D01*
X68472Y-45327D01*
X67922Y-45136D02*
X67922Y-44803D01*
X68472Y-45017D01*
X68472Y-44613D02*
X67922Y-44613D01*
X68263Y-44565D02*
X68472Y-44422D01*
X68105Y-44422D02*
X68315Y-44613D01*
X64883Y-45198D02*
X64864Y-45217D01*
X64807Y-45236D01*
X64769Y-45236D01*
X64711Y-45217D01*
X64673Y-45179D01*
X64654Y-45141D01*
X64635Y-45065D01*
X64635Y-45008D01*
X64654Y-44932D01*
X64673Y-44894D01*
X64711Y-44855D01*
X64769Y-44836D01*
X64807Y-44836D01*
X64864Y-44855D01*
X64883Y-44875D01*
X65016Y-44836D02*
X65264Y-44836D01*
X65130Y-44989D01*
X65188Y-44989D01*
X65226Y-45008D01*
X65245Y-45027D01*
X65264Y-45065D01*
X65264Y-45160D01*
X65245Y-45198D01*
X65226Y-45217D01*
X65188Y-45236D01*
X65073Y-45236D01*
X65035Y-45217D01*
X65016Y-45198D01*
X67333Y-41198D02*
X67314Y-41217D01*
X67257Y-41236D01*
X67219Y-41236D01*
X67161Y-41217D01*
X67123Y-41179D01*
X67104Y-41141D01*
X67085Y-41065D01*
X67085Y-41008D01*
X67104Y-40932D01*
X67123Y-40894D01*
X67161Y-40855D01*
X67219Y-40836D01*
X67257Y-40836D01*
X67314Y-40855D01*
X67333Y-40875D01*
X67676Y-40970D02*
X67676Y-41236D01*
X67580Y-40817D02*
X67485Y-41103D01*
X67733Y-41103D01*
X57248Y-43441D02*
X57267Y-43460D01*
X57286Y-43517D01*
X57286Y-43555D01*
X57267Y-43613D01*
X57229Y-43651D01*
X57191Y-43670D01*
X57115Y-43689D01*
X57058Y-43689D01*
X56982Y-43670D01*
X56944Y-43651D01*
X56905Y-43613D01*
X56886Y-43555D01*
X56886Y-43517D01*
X56905Y-43460D01*
X56925Y-43441D01*
X56925Y-43289D02*
X56905Y-43270D01*
X56886Y-43232D01*
X56886Y-43136D01*
X56905Y-43098D01*
X56925Y-43079D01*
X56963Y-43060D01*
X57001Y-43060D01*
X57058Y-43079D01*
X57286Y-43308D01*
X57286Y-43060D01*
X61308Y-45173D02*
X61289Y-45192D01*
X61232Y-45211D01*
X61194Y-45211D01*
X61136Y-45192D01*
X61098Y-45154D01*
X61079Y-45116D01*
X61060Y-45040D01*
X61060Y-44983D01*
X61079Y-44907D01*
X61098Y-44869D01*
X61136Y-44830D01*
X61194Y-44811D01*
X61232Y-44811D01*
X61289Y-44830D01*
X61308Y-44850D01*
X61689Y-45211D02*
X61460Y-45211D01*
X61575Y-45211D02*
X61575Y-44811D01*
X61536Y-44869D01*
X61498Y-44907D01*
X61460Y-44926D01*
G54D20*
X45367Y-35080D02*
X45367Y-34880D01*
X45410Y-34880D01*
X45435Y-34890D01*
X45452Y-34909D01*
X45461Y-34928D01*
X45470Y-34966D01*
X45470Y-34995D01*
X45461Y-35033D01*
X45452Y-35052D01*
X45435Y-35071D01*
X45410Y-35080D01*
X45367Y-35080D01*
X45530Y-34880D02*
X45641Y-34880D01*
X45581Y-34957D01*
X45607Y-34957D01*
X45624Y-34966D01*
X45632Y-34976D01*
X45641Y-34995D01*
X45641Y-35042D01*
X45632Y-35061D01*
X45624Y-35071D01*
X45607Y-35080D01*
X45555Y-35080D01*
X45538Y-35071D01*
X45530Y-35061D01*
X45367Y-33830D02*
X45367Y-33630D01*
X45410Y-33630D01*
X45435Y-33640D01*
X45452Y-33659D01*
X45461Y-33678D01*
X45470Y-33716D01*
X45470Y-33745D01*
X45461Y-33783D01*
X45452Y-33802D01*
X45435Y-33821D01*
X45410Y-33830D01*
X45367Y-33830D01*
X45538Y-33650D02*
X45547Y-33640D01*
X45564Y-33630D01*
X45607Y-33630D01*
X45624Y-33640D01*
X45632Y-33650D01*
X45641Y-33669D01*
X45641Y-33688D01*
X45632Y-33716D01*
X45530Y-33830D01*
X45641Y-33830D01*
X45367Y-32580D02*
X45367Y-32380D01*
X45410Y-32380D01*
X45435Y-32390D01*
X45452Y-32409D01*
X45461Y-32428D01*
X45470Y-32466D01*
X45470Y-32495D01*
X45461Y-32533D01*
X45452Y-32552D01*
X45435Y-32571D01*
X45410Y-32580D01*
X45367Y-32580D01*
X45641Y-32580D02*
X45538Y-32580D01*
X45590Y-32580D02*
X45590Y-32380D01*
X45572Y-32409D01*
X45555Y-32428D01*
X45538Y-32438D01*
X45367Y-37580D02*
X45367Y-37380D01*
X45410Y-37380D01*
X45435Y-37390D01*
X45452Y-37409D01*
X45461Y-37428D01*
X45470Y-37466D01*
X45470Y-37495D01*
X45461Y-37533D01*
X45452Y-37552D01*
X45435Y-37571D01*
X45410Y-37580D01*
X45367Y-37580D01*
X45632Y-37380D02*
X45547Y-37380D01*
X45538Y-37476D01*
X45547Y-37466D01*
X45564Y-37457D01*
X45607Y-37457D01*
X45624Y-37466D01*
X45632Y-37476D01*
X45641Y-37495D01*
X45641Y-37542D01*
X45632Y-37561D01*
X45624Y-37571D01*
X45607Y-37580D01*
X45564Y-37580D01*
X45547Y-37571D01*
X45538Y-37561D01*
X45367Y-36330D02*
X45367Y-36130D01*
X45410Y-36130D01*
X45435Y-36140D01*
X45452Y-36159D01*
X45461Y-36178D01*
X45470Y-36216D01*
X45470Y-36245D01*
X45461Y-36283D01*
X45452Y-36302D01*
X45435Y-36321D01*
X45410Y-36330D01*
X45367Y-36330D01*
X45624Y-36197D02*
X45624Y-36330D01*
X45581Y-36121D02*
X45538Y-36264D01*
X45650Y-36264D01*
G54D21*
X64763Y-35642D02*
X64748Y-35671D01*
X64720Y-35699D01*
X64677Y-35742D01*
X64663Y-35771D01*
X64663Y-35799D01*
X64734Y-35785D02*
X64720Y-35814D01*
X64691Y-35842D01*
X64634Y-35856D01*
X64534Y-35856D01*
X64477Y-35842D01*
X64448Y-35814D01*
X64434Y-35785D01*
X64434Y-35728D01*
X64448Y-35699D01*
X64477Y-35671D01*
X64534Y-35656D01*
X64634Y-35656D01*
X64691Y-35671D01*
X64720Y-35699D01*
X64734Y-35728D01*
X64734Y-35785D01*
X64734Y-35371D02*
X64734Y-35542D01*
X64734Y-35456D02*
X64434Y-35456D01*
X64477Y-35485D01*
X64505Y-35514D01*
X64520Y-35542D01*
G54D19*
X64685Y-35654D02*
X64685Y-35457D01*
X64751Y-35598D01*
X64816Y-35457D01*
X64816Y-35654D01*
X64948Y-35457D02*
X64985Y-35457D01*
X65004Y-35467D01*
X65023Y-35485D01*
X65032Y-35523D01*
X65032Y-35589D01*
X65023Y-35626D01*
X65004Y-35645D01*
X64985Y-35654D01*
X64948Y-35654D01*
X64929Y-35645D01*
X64910Y-35626D01*
X64901Y-35589D01*
X64901Y-35523D01*
X64910Y-35485D01*
X64929Y-35467D01*
X64948Y-35457D01*
X65107Y-35645D02*
X65135Y-35654D01*
X65182Y-35654D01*
X65201Y-35645D01*
X65210Y-35635D01*
X65220Y-35617D01*
X65220Y-35598D01*
X65210Y-35579D01*
X65201Y-35570D01*
X65182Y-35560D01*
X65145Y-35551D01*
X65126Y-35542D01*
X65117Y-35532D01*
X65107Y-35514D01*
X65107Y-35495D01*
X65117Y-35476D01*
X65126Y-35467D01*
X65145Y-35457D01*
X65192Y-35457D01*
X65220Y-35467D01*
X65370Y-35551D02*
X65304Y-35551D01*
X65304Y-35654D02*
X65304Y-35457D01*
X65398Y-35457D01*
X65473Y-35551D02*
X65539Y-35551D01*
X65567Y-35654D02*
X65473Y-35654D01*
X65473Y-35457D01*
X65567Y-35457D01*
X65623Y-35457D02*
X65736Y-35457D01*
X65679Y-35654D02*
X65679Y-35457D01*
X65754Y-35673D02*
X65905Y-35673D01*
X65951Y-35654D02*
X65951Y-35457D01*
X66064Y-35654D01*
X66064Y-35457D01*
G54D11*
X45128Y-39492D02*
X44928Y-39207D01*
X44785Y-39492D02*
X44785Y-38892D01*
X45014Y-38892D01*
X45071Y-38921D01*
X45100Y-38950D01*
X45128Y-39007D01*
X45128Y-39092D01*
X45100Y-39150D01*
X45071Y-39178D01*
X45014Y-39207D01*
X44785Y-39207D01*
X45385Y-39178D02*
X45585Y-39178D01*
X45671Y-39492D02*
X45385Y-39492D01*
X45385Y-38892D01*
X45671Y-38892D01*
X45900Y-39464D02*
X45985Y-39492D01*
X46128Y-39492D01*
X46185Y-39464D01*
X46214Y-39435D01*
X46242Y-39378D01*
X46242Y-39321D01*
X46214Y-39264D01*
X46185Y-39235D01*
X46128Y-39207D01*
X46014Y-39178D01*
X45957Y-39150D01*
X45928Y-39121D01*
X45900Y-39064D01*
X45900Y-39007D01*
X45928Y-38950D01*
X45957Y-38921D01*
X46014Y-38892D01*
X46157Y-38892D01*
X46242Y-38921D01*
X46500Y-39178D02*
X46700Y-39178D01*
X46785Y-39492D02*
X46500Y-39492D01*
X46500Y-38892D01*
X46785Y-38892D01*
X46957Y-38892D02*
X47300Y-38892D01*
X47128Y-39492D02*
X47128Y-38892D01*
G54D10*
X62442Y-37017D02*
X63042Y-36617D01*
X62442Y-36617D02*
X63042Y-37017D01*
X62728Y-36189D02*
X62757Y-36103D01*
X62785Y-36074D01*
X62842Y-36046D01*
X62928Y-36046D01*
X62985Y-36074D01*
X63014Y-36103D01*
X63042Y-36160D01*
X63042Y-36389D01*
X62442Y-36389D01*
X62442Y-36189D01*
X62471Y-36132D01*
X62500Y-36103D01*
X62557Y-36074D01*
X62614Y-36074D01*
X62671Y-36103D01*
X62700Y-36132D01*
X62728Y-36189D01*
X62728Y-36389D01*
X62728Y-35789D02*
X62728Y-35589D01*
X63042Y-35503D02*
X63042Y-35789D01*
X62442Y-35789D01*
X62442Y-35503D01*
X62728Y-35246D02*
X62728Y-35046D01*
X63042Y-34960D02*
X63042Y-35246D01*
X62442Y-35246D01*
X62442Y-34960D01*
M02*
